%TF.GenerationSoftware,KiCad,Pcbnew,9.0.3*%
%TF.CreationDate,2025-11-10T23:22:15+01:00*%
%TF.ProjectId,AESS-PCB,41455353-2d50-4434-922e-6b696361645f,rev?*%
%TF.SameCoordinates,Original*%
%TF.FileFunction,Legend,Top*%
%TF.FilePolarity,Positive*%
%FSLAX46Y46*%
G04 Gerber Fmt 4.6, Leading zero omitted, Abs format (unit mm)*
G04 Created by KiCad (PCBNEW 9.0.3) date 2025-11-10 23:22:15*
%MOMM*%
%LPD*%
G01*
G04 APERTURE LIST*
%ADD10C,0.300000*%
%ADD11C,0.150000*%
%ADD12C,0.120000*%
%ADD13C,0.200000*%
%ADD14C,0.100000*%
%ADD15C,0.127000*%
G04 APERTURE END LIST*
D10*
G36*
X28583403Y-23154481D02*
G01*
X28620406Y-23191485D01*
X28665114Y-23280899D01*
X28665114Y-23595489D01*
X28250828Y-23595489D01*
X28250828Y-23280899D01*
X28295535Y-23191484D01*
X28332539Y-23154480D01*
X28421952Y-23109774D01*
X28493990Y-23109774D01*
X28583403Y-23154481D01*
G37*
G36*
X29369116Y-23083051D02*
G01*
X29406121Y-23120056D01*
X29450828Y-23209469D01*
X29450828Y-23595489D01*
X28965114Y-23595489D01*
X28965114Y-23269831D01*
X29017647Y-23112229D01*
X29046824Y-23083052D01*
X29136238Y-23038346D01*
X29279704Y-23038346D01*
X29369116Y-23083051D01*
G37*
G36*
X29022257Y-22108803D02*
G01*
X28575168Y-21959774D01*
X29022257Y-21810744D01*
X29022257Y-22108803D01*
G37*
G36*
X29917495Y-24062156D02*
G01*
X27784161Y-24062156D01*
X27784161Y-23245489D01*
X27950828Y-23245489D01*
X27950828Y-23745489D01*
X27953710Y-23774753D01*
X27976108Y-23828825D01*
X28017492Y-23870209D01*
X28071564Y-23892607D01*
X28100828Y-23895489D01*
X29600828Y-23895489D01*
X29630092Y-23892607D01*
X29684164Y-23870209D01*
X29725548Y-23828825D01*
X29747946Y-23774753D01*
X29750828Y-23745489D01*
X29750828Y-23174060D01*
X29747946Y-23144796D01*
X29745883Y-23139817D01*
X29745502Y-23134442D01*
X29734992Y-23106979D01*
X29663564Y-22964121D01*
X29655637Y-22951529D01*
X29654121Y-22947868D01*
X29650737Y-22943745D01*
X29647899Y-22939236D01*
X29644907Y-22936641D01*
X29635466Y-22925137D01*
X29564037Y-22853708D01*
X29552535Y-22844268D01*
X29549939Y-22841275D01*
X29545425Y-22838434D01*
X29541306Y-22835053D01*
X29537646Y-22833537D01*
X29525053Y-22825610D01*
X29382196Y-22754182D01*
X29354732Y-22743672D01*
X29349356Y-22743290D01*
X29344378Y-22741228D01*
X29315114Y-22738346D01*
X29100828Y-22738346D01*
X29071564Y-22741228D01*
X29066585Y-22743290D01*
X29061210Y-22743672D01*
X29033747Y-22754182D01*
X28890889Y-22825610D01*
X28878297Y-22833536D01*
X28874636Y-22835053D01*
X28870513Y-22838436D01*
X28866004Y-22841275D01*
X28863409Y-22844266D01*
X28851905Y-22853708D01*
X28780476Y-22925137D01*
X28779505Y-22926319D01*
X28778324Y-22925138D01*
X28766821Y-22915698D01*
X28764225Y-22912704D01*
X28759710Y-22909862D01*
X28755593Y-22906483D01*
X28751934Y-22904967D01*
X28739339Y-22897039D01*
X28596482Y-22825610D01*
X28569019Y-22815101D01*
X28563644Y-22814719D01*
X28558664Y-22812656D01*
X28529400Y-22809774D01*
X28386542Y-22809774D01*
X28357278Y-22812656D01*
X28352297Y-22814719D01*
X28346923Y-22815101D01*
X28319459Y-22825610D01*
X28176603Y-22897039D01*
X28164006Y-22904967D01*
X28160349Y-22906483D01*
X28156231Y-22909862D01*
X28151717Y-22912704D01*
X28149119Y-22915698D01*
X28137618Y-22925138D01*
X28066190Y-22996567D01*
X28056752Y-23008066D01*
X28053758Y-23010664D01*
X28050915Y-23015180D01*
X28047536Y-23019298D01*
X28046021Y-23022954D01*
X28038093Y-23035550D01*
X27966664Y-23178407D01*
X27956155Y-23205870D01*
X27955773Y-23211244D01*
X27953710Y-23216225D01*
X27950828Y-23245489D01*
X27784161Y-23245489D01*
X27784161Y-21941013D01*
X27952006Y-21941013D01*
X27953339Y-21959774D01*
X27952006Y-21978535D01*
X27955395Y-21988702D01*
X27956155Y-21999394D01*
X27964566Y-22016217D01*
X27970514Y-22034059D01*
X27977536Y-22042155D01*
X27982329Y-22051741D01*
X27996537Y-22064064D01*
X28008861Y-22078273D01*
X28018446Y-22083065D01*
X28026543Y-22090088D01*
X28053394Y-22102076D01*
X29553394Y-22602077D01*
X29582068Y-22608597D01*
X29640448Y-22604447D01*
X29692795Y-22578273D01*
X29731142Y-22534059D01*
X29749651Y-22478535D01*
X29745501Y-22420155D01*
X29719328Y-22367807D01*
X29675113Y-22329460D01*
X29648262Y-22317472D01*
X29322257Y-22208803D01*
X29322257Y-21710744D01*
X29648262Y-21602076D01*
X29675113Y-21590088D01*
X29719328Y-21551741D01*
X29745501Y-21499393D01*
X29749651Y-21441013D01*
X29731142Y-21385489D01*
X29692795Y-21341275D01*
X29640448Y-21315101D01*
X29582068Y-21310951D01*
X29553394Y-21317471D01*
X28053394Y-21817472D01*
X28026543Y-21829460D01*
X28018446Y-21836482D01*
X28008861Y-21841275D01*
X27996537Y-21855483D01*
X27982329Y-21867807D01*
X27977536Y-21877392D01*
X27970514Y-21885489D01*
X27964566Y-21903330D01*
X27956155Y-21920154D01*
X27955395Y-21930845D01*
X27952006Y-21941013D01*
X27784161Y-21941013D01*
X27784161Y-20316918D01*
X27950828Y-20316918D01*
X27950828Y-21174060D01*
X27953710Y-21203324D01*
X27976108Y-21257396D01*
X28017492Y-21298780D01*
X28071564Y-21321178D01*
X28130092Y-21321178D01*
X28184164Y-21298780D01*
X28225548Y-21257396D01*
X28247946Y-21203324D01*
X28250828Y-21174060D01*
X28250828Y-20895489D01*
X29600828Y-20895489D01*
X29630092Y-20892607D01*
X29684164Y-20870209D01*
X29725548Y-20828825D01*
X29747946Y-20774753D01*
X29747946Y-20716225D01*
X29725548Y-20662153D01*
X29684164Y-20620769D01*
X29630092Y-20598371D01*
X29600828Y-20595489D01*
X28250828Y-20595489D01*
X28250828Y-20316918D01*
X28247946Y-20287654D01*
X28225548Y-20233582D01*
X28184164Y-20192198D01*
X28130092Y-20169800D01*
X28071564Y-20169800D01*
X28017492Y-20192198D01*
X27976108Y-20233582D01*
X27953710Y-20287654D01*
X27950828Y-20316918D01*
X27784161Y-20316918D01*
X27784161Y-18674061D01*
X28879400Y-18674061D01*
X28879400Y-19816918D01*
X28882282Y-19846182D01*
X28904680Y-19900254D01*
X28946064Y-19941638D01*
X29000136Y-19964036D01*
X29058664Y-19964036D01*
X29112736Y-19941638D01*
X29154120Y-19900254D01*
X29176518Y-19846182D01*
X29179400Y-19816918D01*
X29179400Y-18674061D01*
X29176518Y-18644797D01*
X29154120Y-18590725D01*
X29112736Y-18549341D01*
X29058664Y-18526943D01*
X29000136Y-18526943D01*
X28946064Y-18549341D01*
X28904680Y-18590725D01*
X28882282Y-18644797D01*
X28879400Y-18674061D01*
X27784161Y-18674061D01*
X27784161Y-18360276D01*
X29917495Y-18360276D01*
X29917495Y-24062156D01*
G37*
G36*
X28583403Y-17504481D02*
G01*
X28620406Y-17541485D01*
X28665114Y-17630899D01*
X28665114Y-17945489D01*
X28250828Y-17945489D01*
X28250828Y-17630899D01*
X28295535Y-17541484D01*
X28332539Y-17504480D01*
X28421952Y-17459774D01*
X28493990Y-17459774D01*
X28583403Y-17504481D01*
G37*
G36*
X29369116Y-17433051D02*
G01*
X29406121Y-17470056D01*
X29450828Y-17559469D01*
X29450828Y-17945489D01*
X28965114Y-17945489D01*
X28965114Y-17619831D01*
X29017647Y-17462229D01*
X29046824Y-17433052D01*
X29136238Y-17388346D01*
X29279704Y-17388346D01*
X29369116Y-17433051D01*
G37*
G36*
X29022257Y-16458803D02*
G01*
X28575168Y-16309774D01*
X29022257Y-16160744D01*
X29022257Y-16458803D01*
G37*
G36*
X29917495Y-18412156D02*
G01*
X27784161Y-18412156D01*
X27784161Y-17595489D01*
X27950828Y-17595489D01*
X27950828Y-18095489D01*
X27953710Y-18124753D01*
X27976108Y-18178825D01*
X28017492Y-18220209D01*
X28071564Y-18242607D01*
X28100828Y-18245489D01*
X29600828Y-18245489D01*
X29630092Y-18242607D01*
X29684164Y-18220209D01*
X29725548Y-18178825D01*
X29747946Y-18124753D01*
X29750828Y-18095489D01*
X29750828Y-17524060D01*
X29747946Y-17494796D01*
X29745883Y-17489817D01*
X29745502Y-17484442D01*
X29734992Y-17456979D01*
X29663564Y-17314121D01*
X29655637Y-17301529D01*
X29654121Y-17297868D01*
X29650737Y-17293745D01*
X29647899Y-17289236D01*
X29644907Y-17286641D01*
X29635466Y-17275137D01*
X29564037Y-17203708D01*
X29552535Y-17194268D01*
X29549939Y-17191275D01*
X29545425Y-17188434D01*
X29541306Y-17185053D01*
X29537646Y-17183537D01*
X29525053Y-17175610D01*
X29382196Y-17104182D01*
X29354732Y-17093672D01*
X29349356Y-17093290D01*
X29344378Y-17091228D01*
X29315114Y-17088346D01*
X29100828Y-17088346D01*
X29071564Y-17091228D01*
X29066585Y-17093290D01*
X29061210Y-17093672D01*
X29033747Y-17104182D01*
X28890889Y-17175610D01*
X28878297Y-17183536D01*
X28874636Y-17185053D01*
X28870513Y-17188436D01*
X28866004Y-17191275D01*
X28863409Y-17194266D01*
X28851905Y-17203708D01*
X28780476Y-17275137D01*
X28779505Y-17276319D01*
X28778324Y-17275138D01*
X28766821Y-17265698D01*
X28764225Y-17262704D01*
X28759710Y-17259862D01*
X28755593Y-17256483D01*
X28751934Y-17254967D01*
X28739339Y-17247039D01*
X28596482Y-17175610D01*
X28569019Y-17165101D01*
X28563644Y-17164719D01*
X28558664Y-17162656D01*
X28529400Y-17159774D01*
X28386542Y-17159774D01*
X28357278Y-17162656D01*
X28352297Y-17164719D01*
X28346923Y-17165101D01*
X28319459Y-17175610D01*
X28176603Y-17247039D01*
X28164006Y-17254967D01*
X28160349Y-17256483D01*
X28156231Y-17259862D01*
X28151717Y-17262704D01*
X28149119Y-17265698D01*
X28137618Y-17275138D01*
X28066190Y-17346567D01*
X28056752Y-17358066D01*
X28053758Y-17360664D01*
X28050915Y-17365180D01*
X28047536Y-17369298D01*
X28046021Y-17372954D01*
X28038093Y-17385550D01*
X27966664Y-17528407D01*
X27956155Y-17555870D01*
X27955773Y-17561244D01*
X27953710Y-17566225D01*
X27950828Y-17595489D01*
X27784161Y-17595489D01*
X27784161Y-16291013D01*
X27952006Y-16291013D01*
X27953339Y-16309774D01*
X27952006Y-16328535D01*
X27955395Y-16338702D01*
X27956155Y-16349394D01*
X27964566Y-16366217D01*
X27970514Y-16384059D01*
X27977536Y-16392155D01*
X27982329Y-16401741D01*
X27996537Y-16414064D01*
X28008861Y-16428273D01*
X28018446Y-16433065D01*
X28026543Y-16440088D01*
X28053394Y-16452076D01*
X29553394Y-16952077D01*
X29582068Y-16958597D01*
X29640448Y-16954447D01*
X29692795Y-16928273D01*
X29731142Y-16884059D01*
X29749651Y-16828535D01*
X29745501Y-16770155D01*
X29719328Y-16717807D01*
X29675113Y-16679460D01*
X29648262Y-16667472D01*
X29322257Y-16558803D01*
X29322257Y-16060744D01*
X29648262Y-15952076D01*
X29675113Y-15940088D01*
X29719328Y-15901741D01*
X29745501Y-15849393D01*
X29749651Y-15791013D01*
X29731142Y-15735489D01*
X29692795Y-15691275D01*
X29640448Y-15665101D01*
X29582068Y-15660951D01*
X29553394Y-15667471D01*
X28053394Y-16167472D01*
X28026543Y-16179460D01*
X28018446Y-16186482D01*
X28008861Y-16191275D01*
X27996537Y-16205483D01*
X27982329Y-16217807D01*
X27977536Y-16227392D01*
X27970514Y-16235489D01*
X27964566Y-16253330D01*
X27956155Y-16270154D01*
X27955395Y-16280845D01*
X27952006Y-16291013D01*
X27784161Y-16291013D01*
X27784161Y-14666918D01*
X27950828Y-14666918D01*
X27950828Y-15524060D01*
X27953710Y-15553324D01*
X27976108Y-15607396D01*
X28017492Y-15648780D01*
X28071564Y-15671178D01*
X28130092Y-15671178D01*
X28184164Y-15648780D01*
X28225548Y-15607396D01*
X28247946Y-15553324D01*
X28250828Y-15524060D01*
X28250828Y-15245489D01*
X29600828Y-15245489D01*
X29630092Y-15242607D01*
X29684164Y-15220209D01*
X29725548Y-15178825D01*
X29747946Y-15124753D01*
X29747946Y-15066225D01*
X29725548Y-15012153D01*
X29684164Y-14970769D01*
X29630092Y-14948371D01*
X29600828Y-14945489D01*
X28250828Y-14945489D01*
X28250828Y-14666918D01*
X28247946Y-14637654D01*
X28225548Y-14583582D01*
X28184164Y-14542198D01*
X28130092Y-14519800D01*
X28071564Y-14519800D01*
X28017492Y-14542198D01*
X27976108Y-14583582D01*
X27953710Y-14637654D01*
X27950828Y-14666918D01*
X27784161Y-14666918D01*
X27784161Y-13566225D01*
X28310853Y-13566225D01*
X28310853Y-13624753D01*
X28333251Y-13678825D01*
X28374635Y-13720209D01*
X28428707Y-13742607D01*
X28457971Y-13745489D01*
X28879400Y-13745489D01*
X28879400Y-14166918D01*
X28882282Y-14196182D01*
X28904680Y-14250254D01*
X28946064Y-14291638D01*
X29000136Y-14314036D01*
X29058664Y-14314036D01*
X29112736Y-14291638D01*
X29154120Y-14250254D01*
X29176518Y-14196182D01*
X29179400Y-14166918D01*
X29179400Y-13745489D01*
X29600828Y-13745489D01*
X29630092Y-13742607D01*
X29684164Y-13720209D01*
X29725548Y-13678825D01*
X29747946Y-13624753D01*
X29747946Y-13566225D01*
X29725548Y-13512153D01*
X29684164Y-13470769D01*
X29630092Y-13448371D01*
X29600828Y-13445489D01*
X29179400Y-13445489D01*
X29179400Y-13024061D01*
X29176518Y-12994797D01*
X29154120Y-12940725D01*
X29112736Y-12899341D01*
X29058664Y-12876943D01*
X29000136Y-12876943D01*
X28946064Y-12899341D01*
X28904680Y-12940725D01*
X28882282Y-12994797D01*
X28879400Y-13024061D01*
X28879400Y-13445489D01*
X28457971Y-13445489D01*
X28428707Y-13448371D01*
X28374635Y-13470769D01*
X28333251Y-13512153D01*
X28310853Y-13566225D01*
X27784161Y-13566225D01*
X27784161Y-12710276D01*
X29917495Y-12710276D01*
X29917495Y-18412156D01*
G37*
D11*
X34038095Y-17404819D02*
X34038095Y-18214342D01*
X34038095Y-18214342D02*
X34085714Y-18309580D01*
X34085714Y-18309580D02*
X34133333Y-18357200D01*
X34133333Y-18357200D02*
X34228571Y-18404819D01*
X34228571Y-18404819D02*
X34419047Y-18404819D01*
X34419047Y-18404819D02*
X34514285Y-18357200D01*
X34514285Y-18357200D02*
X34561904Y-18309580D01*
X34561904Y-18309580D02*
X34609523Y-18214342D01*
X34609523Y-18214342D02*
X34609523Y-17404819D01*
X35038095Y-17500057D02*
X35085714Y-17452438D01*
X35085714Y-17452438D02*
X35180952Y-17404819D01*
X35180952Y-17404819D02*
X35419047Y-17404819D01*
X35419047Y-17404819D02*
X35514285Y-17452438D01*
X35514285Y-17452438D02*
X35561904Y-17500057D01*
X35561904Y-17500057D02*
X35609523Y-17595295D01*
X35609523Y-17595295D02*
X35609523Y-17690533D01*
X35609523Y-17690533D02*
X35561904Y-17833390D01*
X35561904Y-17833390D02*
X34990476Y-18404819D01*
X34990476Y-18404819D02*
X35609523Y-18404819D01*
X125143333Y-22240180D02*
X125143333Y-21525895D01*
X125143333Y-21525895D02*
X125190952Y-21383038D01*
X125190952Y-21383038D02*
X125286190Y-21287800D01*
X125286190Y-21287800D02*
X125429047Y-21240180D01*
X125429047Y-21240180D02*
X125524285Y-21240180D01*
X124714761Y-22144942D02*
X124667142Y-22192561D01*
X124667142Y-22192561D02*
X124571904Y-22240180D01*
X124571904Y-22240180D02*
X124333809Y-22240180D01*
X124333809Y-22240180D02*
X124238571Y-22192561D01*
X124238571Y-22192561D02*
X124190952Y-22144942D01*
X124190952Y-22144942D02*
X124143333Y-22049704D01*
X124143333Y-22049704D02*
X124143333Y-21954466D01*
X124143333Y-21954466D02*
X124190952Y-21811609D01*
X124190952Y-21811609D02*
X124762380Y-21240180D01*
X124762380Y-21240180D02*
X124143333Y-21240180D01*
X56772319Y-37759404D02*
X57581842Y-37759404D01*
X57581842Y-37759404D02*
X57677080Y-37711785D01*
X57677080Y-37711785D02*
X57724700Y-37664166D01*
X57724700Y-37664166D02*
X57772319Y-37568928D01*
X57772319Y-37568928D02*
X57772319Y-37378452D01*
X57772319Y-37378452D02*
X57724700Y-37283214D01*
X57724700Y-37283214D02*
X57677080Y-37235595D01*
X57677080Y-37235595D02*
X57581842Y-37187976D01*
X57581842Y-37187976D02*
X56772319Y-37187976D01*
X56772319Y-36283214D02*
X56772319Y-36473690D01*
X56772319Y-36473690D02*
X56819938Y-36568928D01*
X56819938Y-36568928D02*
X56867557Y-36616547D01*
X56867557Y-36616547D02*
X57010414Y-36711785D01*
X57010414Y-36711785D02*
X57200890Y-36759404D01*
X57200890Y-36759404D02*
X57581842Y-36759404D01*
X57581842Y-36759404D02*
X57677080Y-36711785D01*
X57677080Y-36711785D02*
X57724700Y-36664166D01*
X57724700Y-36664166D02*
X57772319Y-36568928D01*
X57772319Y-36568928D02*
X57772319Y-36378452D01*
X57772319Y-36378452D02*
X57724700Y-36283214D01*
X57724700Y-36283214D02*
X57677080Y-36235595D01*
X57677080Y-36235595D02*
X57581842Y-36187976D01*
X57581842Y-36187976D02*
X57343747Y-36187976D01*
X57343747Y-36187976D02*
X57248509Y-36235595D01*
X57248509Y-36235595D02*
X57200890Y-36283214D01*
X57200890Y-36283214D02*
X57153271Y-36378452D01*
X57153271Y-36378452D02*
X57153271Y-36568928D01*
X57153271Y-36568928D02*
X57200890Y-36664166D01*
X57200890Y-36664166D02*
X57248509Y-36711785D01*
X57248509Y-36711785D02*
X57343747Y-36759404D01*
X47916666Y-12817319D02*
X47916666Y-13531604D01*
X47916666Y-13531604D02*
X47869047Y-13674461D01*
X47869047Y-13674461D02*
X47773809Y-13769700D01*
X47773809Y-13769700D02*
X47630952Y-13817319D01*
X47630952Y-13817319D02*
X47535714Y-13817319D01*
X48916666Y-13817319D02*
X48345238Y-13817319D01*
X48630952Y-13817319D02*
X48630952Y-12817319D01*
X48630952Y-12817319D02*
X48535714Y-12960176D01*
X48535714Y-12960176D02*
X48440476Y-13055414D01*
X48440476Y-13055414D02*
X48345238Y-13103033D01*
X60713095Y-15487319D02*
X60713095Y-16296842D01*
X60713095Y-16296842D02*
X60760714Y-16392080D01*
X60760714Y-16392080D02*
X60808333Y-16439700D01*
X60808333Y-16439700D02*
X60903571Y-16487319D01*
X60903571Y-16487319D02*
X61094047Y-16487319D01*
X61094047Y-16487319D02*
X61189285Y-16439700D01*
X61189285Y-16439700D02*
X61236904Y-16392080D01*
X61236904Y-16392080D02*
X61284523Y-16296842D01*
X61284523Y-16296842D02*
X61284523Y-15487319D01*
X62284523Y-16487319D02*
X61713095Y-16487319D01*
X61998809Y-16487319D02*
X61998809Y-15487319D01*
X61998809Y-15487319D02*
X61903571Y-15630176D01*
X61903571Y-15630176D02*
X61808333Y-15725414D01*
X61808333Y-15725414D02*
X61713095Y-15773033D01*
D12*
%TO.C,C2*%
X39660000Y-19942164D02*
X39660000Y-20157836D01*
X38940000Y-19942164D02*
X38940000Y-20157836D01*
%TO.C,R4*%
X56903641Y-40830000D02*
X56596359Y-40830000D01*
X56903641Y-40070000D02*
X56596359Y-40070000D01*
%TO.C,R3*%
X54596359Y-40070000D02*
X54903641Y-40070000D01*
X54596359Y-40830000D02*
X54903641Y-40830000D01*
%TO.C,R2*%
X122203641Y-21980000D02*
X121896359Y-21980000D01*
X122203641Y-21220000D02*
X121896359Y-21220000D01*
%TO.C,R1*%
X57120000Y-33703641D02*
X57120000Y-33396359D01*
X57880000Y-33703641D02*
X57880000Y-33396359D01*
%TO.C,C3*%
X27690000Y-28607836D02*
X27690000Y-28392164D01*
X28410000Y-28607836D02*
X28410000Y-28392164D01*
%TO.C,C1*%
X51257836Y-30910000D02*
X51042164Y-30910000D01*
X51257836Y-30190000D02*
X51042164Y-30190000D01*
D13*
%TO.C,U2*%
X33899999Y-20450000D02*
X35700001Y-20450000D01*
X31499999Y-15450000D02*
X35700001Y-15450000D01*
D12*
%TO.C,J2*%
X120140000Y-16295000D02*
X120140000Y-17995000D01*
X129480000Y-16295000D02*
X129480000Y-17995000D01*
%TO.C,J3*%
X27302500Y-12630000D02*
X27302500Y-23370000D01*
X23682500Y-12630000D02*
X23682500Y-13870000D01*
X22682500Y-12630000D02*
X22682500Y-13870000D01*
X21382500Y-12630000D02*
X21382500Y-13870000D01*
X19262500Y-12630000D02*
X27302500Y-12630000D01*
X19262500Y-15450000D02*
X19262500Y-12630000D01*
X23682500Y-17630000D02*
X23682500Y-18938000D01*
X22682500Y-17630000D02*
X22682500Y-18938000D01*
X21382500Y-17630000D02*
X21382500Y-20207000D01*
X21382500Y-21293000D02*
X21382500Y-23370000D01*
X23682500Y-22562000D02*
X23682500Y-23370000D01*
X22682500Y-22562000D02*
X22682500Y-23370000D01*
X27302500Y-23370000D02*
X19262500Y-23370000D01*
X19262500Y-23370000D02*
X19262500Y-16050000D01*
X19262500Y-15750000D02*
X18652500Y-16190000D01*
X18652500Y-15310000D01*
X19262500Y-15750000D01*
G36*
X19262500Y-15750000D02*
G01*
X18652500Y-16190000D01*
X18652500Y-15310000D01*
X19262500Y-15750000D01*
G37*
%TO.C,U6*%
X56562500Y-35632500D02*
X56202500Y-35632500D01*
X56202500Y-35272500D01*
X56562500Y-35632500D01*
G36*
X56562500Y-35632500D02*
G01*
X56202500Y-35632500D01*
X56202500Y-35272500D01*
X56562500Y-35632500D01*
G37*
D14*
X53502500Y-38332500D02*
X53652500Y-38332500D01*
X53502500Y-38332500D02*
X53502500Y-38182500D01*
X56202500Y-38332500D02*
X56052500Y-38332500D01*
X56202500Y-38182500D02*
X56202500Y-38332500D01*
X53492500Y-35632500D02*
X53492500Y-35782500D01*
X53502500Y-35632500D02*
X53652500Y-35632500D01*
D12*
%TO.C,J1*%
X41340000Y-15542500D02*
X41340000Y-15942500D01*
X41340000Y-15542500D02*
X55160000Y-15542500D01*
X41340000Y-18462500D02*
X41340000Y-24242500D01*
X41340000Y-26762500D02*
X41340000Y-29462500D01*
X42750000Y-14642500D02*
X43550000Y-14842500D01*
X42750000Y-15542500D02*
X42750000Y-14542500D01*
X43250000Y-14042500D02*
X53250000Y-14042500D01*
X43550000Y-14842500D02*
X45250000Y-15142500D01*
X45250000Y-15142500D02*
X46050000Y-15242500D01*
X46050000Y-15242500D02*
X47350000Y-15342500D01*
X47350000Y-15342500D02*
X49150000Y-15342500D01*
X49150000Y-15342500D02*
X50450000Y-15242500D01*
X50450000Y-15242500D02*
X51950000Y-15042500D01*
X51950000Y-15042500D02*
X53250000Y-14742500D01*
X53250000Y-14742500D02*
X53750000Y-14642500D01*
X53750000Y-15542500D02*
X53750000Y-14542500D01*
X55160000Y-15542500D02*
X55160000Y-15942500D01*
X55160000Y-18462500D02*
X55160000Y-24242500D01*
X55160000Y-26762500D02*
X55160000Y-29462500D01*
X55160000Y-29462500D02*
X41340000Y-29462500D01*
X42750000Y-14542500D02*
G75*
G02*
X43250000Y-14042500I500001J-1D01*
G01*
X53250000Y-14042500D02*
G75*
G02*
X53750000Y-14542500I0J-500000D01*
G01*
%TO.C,U5*%
X56710000Y-31020000D02*
X56380000Y-30780000D01*
X56710000Y-30540000D01*
X56710000Y-31020000D01*
G36*
X56710000Y-31020000D02*
G01*
X56380000Y-30780000D01*
X56710000Y-30540000D01*
X56710000Y-31020000D01*
G37*
X53310000Y-32080000D02*
X53310000Y-32880000D01*
X53310000Y-32080000D02*
X53310000Y-31280000D01*
X56430000Y-32080000D02*
X56430000Y-32880000D01*
X56430000Y-32080000D02*
X56430000Y-31280000D01*
%TO.C,U3*%
X29140000Y-32260000D02*
X29380000Y-32260000D01*
X38360000Y-32260000D02*
X38120000Y-32260000D01*
X29140000Y-28400000D02*
X29140000Y-32260000D01*
X29140000Y-28400000D02*
X29140000Y-24540000D01*
X38360000Y-28400000D02*
X38360000Y-32260000D01*
X38360000Y-28400000D02*
X38360000Y-24540000D01*
X29140000Y-24540000D02*
X29380000Y-24540000D01*
X38360000Y-24540000D02*
X38120000Y-24540000D01*
X29380000Y-33112500D02*
X28910000Y-33452500D01*
X28910000Y-32772500D01*
X29380000Y-33112500D01*
G36*
X29380000Y-33112500D02*
G01*
X28910000Y-33452500D01*
X28910000Y-32772500D01*
X29380000Y-33112500D01*
G37*
D15*
%TO.C,U1*%
X58550000Y-20107500D02*
X58550000Y-54107500D01*
X61550000Y-57107500D02*
G75*
G02*
X58550000Y-54107500I0J3000000D01*
G01*
X61550000Y-57107500D02*
X110550000Y-57107500D01*
X113550000Y-54107500D02*
G75*
G02*
X110550000Y-57107500I-3000000J0D01*
G01*
X113550000Y-54107500D02*
X113550000Y-20107500D01*
X110550000Y-17107500D02*
G75*
G02*
X113550000Y-20107500I0J-3000000D01*
G01*
X110550000Y-17107500D02*
X61550000Y-17107500D01*
X58550000Y-20107500D02*
G75*
G02*
X61550000Y-17107500I3000000J0D01*
G01*
D13*
X93450000Y-16357500D02*
G75*
G02*
X93250000Y-16357500I-100000J0D01*
G01*
X93250000Y-16357500D02*
G75*
G02*
X93450000Y-16357500I100000J0D01*
G01*
D15*
X73330000Y-18667500D02*
X72250000Y-18667500D01*
X72250000Y-18667500D02*
X72250000Y-21547500D01*
X72250000Y-21547500D02*
X73330000Y-21547500D01*
X93770000Y-18667500D02*
X94850000Y-18667500D01*
X94850000Y-18667500D02*
X94850000Y-21547500D01*
X94850000Y-21547500D02*
X93770000Y-21547500D01*
X73330000Y-52667500D02*
X72250000Y-52667500D01*
X72250000Y-52667500D02*
X72250000Y-55547500D01*
X72250000Y-55547500D02*
X73330000Y-55547500D01*
X93770000Y-52667500D02*
X94850000Y-52667500D01*
X94850000Y-52667500D02*
X94850000Y-55547500D01*
X94850000Y-55547500D02*
X93770000Y-55547500D01*
%TD*%
M02*
