M48
; DRILL file {KiCad 9.0.3} date 2025-11-10T23:22:33+0100
; FORMAT={-:-/ absolute / metric / decimal}
; #@! TF.CreationDate,2025-11-10T23:22:33+01:00
; #@! TF.GenerationSoftware,Kicad,Pcbnew,9.0.3
; #@! TF.FileFunction,Plated,1,2,PTH
FMAT,2
METRIC
; #@! TA.AperFunction,Plated,PTH,ViaDrill
T1C0.300
; #@! TA.AperFunction,Plated,PTH,ComponentDrill
T2C0.600
; #@! TA.AperFunction,Plated,PTH,ComponentDrill
T3C1.300
; #@! TA.AperFunction,Plated,PTH,ComponentDrill
T4C2.700
%
G90
G05
T1
X29.9Y-20.35
X30.5Y-27.4
X32.45Y-25.25
X33.0Y-22.4
X34.965Y-15.885
X36.048Y-22.231
X37.8Y-21.55
X40.0Y-28.8
X40.05Y-26.45
X40.315Y-21.579
X46.71Y-25.51
X47.44Y-22.18
X51.52Y-25.53
X52.538Y-17.404
X52.95Y-18.09
X54.867Y-34.917
X54.9Y-37.8
X54.9Y-39.1
X56.9Y-37.834
X56.9Y-38.933
X57.95Y-37.834
X69.0Y-19.55
X69.2Y-21.01
X74.27Y-16.121
X75.19Y-16.17
X76.241Y-14.251
X77.2Y-22.761
X77.478Y-24.15
X77.68Y-13.66
X78.56Y-19.59
X78.69Y-16.806
X79.8Y-19.59
X79.8Y-20.79
X80.7Y-22.95
X80.798Y-17.412
T3
X23.182Y-15.75
X23.182Y-20.75
T4
X62.05Y-20.607
X62.05Y-53.607
X110.05Y-20.607
X110.05Y-53.607
T2
G00X120.49Y-15.52
M15
G01X120.49Y-14.72
M16
G05
G00X120.49Y-19.85
M15
G01X120.49Y-18.75
M16
G05
G00X129.13Y-15.52
M15
G01X129.13Y-14.72
M16
G05
G00X129.13Y-19.85
M15
G01X129.13Y-18.75
M16
G05
M30
