%TF.GenerationSoftware,KiCad,Pcbnew,9.0.3*%
%TF.CreationDate,2025-11-10T23:22:15+01:00*%
%TF.ProjectId,AESS-PCB,41455353-2d50-4434-922e-6b696361645f,rev?*%
%TF.SameCoordinates,Original*%
%TF.FileFunction,Copper,L2,Bot*%
%TF.FilePolarity,Positive*%
%FSLAX46Y46*%
G04 Gerber Fmt 4.6, Leading zero omitted, Abs format (unit mm)*
G04 Created by KiCad (PCBNEW 9.0.3) date 2025-11-10 23:22:15*
%MOMM*%
%LPD*%
G01*
G04 APERTURE LIST*
G04 Aperture macros list*
%AMRoundRect*
0 Rectangle with rounded corners*
0 $1 Rounding radius*
0 $2 $3 $4 $5 $6 $7 $8 $9 X,Y pos of 4 corners*
0 Add a 4 corners polygon primitive as box body*
4,1,4,$2,$3,$4,$5,$6,$7,$8,$9,$2,$3,0*
0 Add four circle primitives for the rounded corners*
1,1,$1+$1,$2,$3*
1,1,$1+$1,$4,$5*
1,1,$1+$1,$6,$7*
1,1,$1+$1,$8,$9*
0 Add four rect primitives between the rounded corners*
20,1,$1+$1,$2,$3,$4,$5,0*
20,1,$1+$1,$4,$5,$6,$7,0*
20,1,$1+$1,$6,$7,$8,$9,0*
20,1,$1+$1,$8,$9,$2,$3,0*%
G04 Aperture macros list end*
%TA.AperFunction,HeatsinkPad*%
%ADD10O,1.000000X1.800000*%
%TD*%
%TA.AperFunction,HeatsinkPad*%
%ADD11O,1.000000X2.100000*%
%TD*%
%TA.AperFunction,ComponentPad*%
%ADD12RoundRect,0.250001X-1.149999X1.149999X-1.149999X-1.149999X1.149999X-1.149999X1.149999X1.149999X0*%
%TD*%
%TA.AperFunction,ComponentPad*%
%ADD13C,2.800000*%
%TD*%
%TA.AperFunction,ComponentPad*%
%ADD14C,5.800000*%
%TD*%
%TA.AperFunction,ViaPad*%
%ADD15C,0.600000*%
%TD*%
%TA.AperFunction,Conductor*%
%ADD16C,0.200000*%
%TD*%
%TA.AperFunction,Conductor*%
%ADD17C,0.500000*%
%TD*%
%TA.AperFunction,Conductor*%
%ADD18C,0.100000*%
%TD*%
%TA.AperFunction,Conductor*%
%ADD19C,1.000000*%
%TD*%
%TA.AperFunction,Conductor*%
%ADD20C,0.800000*%
%TD*%
G04 APERTURE END LIST*
D10*
%TO.P,J2,S1,SHIELD*%
%TO.N,GND*%
X120490000Y-15120000D03*
D11*
X120490000Y-19300000D03*
D10*
X129130000Y-15120000D03*
D11*
X129130000Y-19300000D03*
%TD*%
D12*
%TO.P,J3,1,Pin_1*%
%TO.N,/BAT+*%
X23182500Y-15750000D03*
D13*
%TO.P,J3,2,Pin_2*%
%TO.N,/BAT-*%
X23182500Y-20750000D03*
%TD*%
D14*
%TO.P,U1,SH1,MOUNTING_PADS*%
%TO.N,Net-(U1A-MOUNTING_PADS-PadSH1)*%
X62050000Y-20607500D03*
%TO.P,U1,SH3,MOUNTING_PADS*%
X62050000Y-53607500D03*
%TO.P,U1,SH2,MOUNTING_PADS*%
X110050000Y-20607500D03*
%TO.P,U1,SH4,MOUNTING_PADS*%
X110050000Y-53607500D03*
%TD*%
D15*
%TO.N,+5V*%
X40315084Y-21579000D03*
X69000000Y-19550000D03*
X36048414Y-22230936D03*
X33000000Y-22400000D03*
X32450000Y-25250000D03*
X30500000Y-27400000D03*
%TO.N,/SCL0*%
X56900000Y-38933500D03*
X56900000Y-37833500D03*
%TO.N,/3V3*%
X54900000Y-39100000D03*
X54900000Y-37800000D03*
%TO.N,GND*%
X79800000Y-20790000D03*
X79800000Y-19590000D03*
X40050000Y-26450000D03*
X40000000Y-28800000D03*
%TO.N,/BAT-*%
X34965397Y-15884603D03*
%TO.N,/3V3*%
X37800000Y-21550000D03*
X54867000Y-34917000D03*
%TO.N,/SCL0*%
X29900000Y-20350000D03*
%TO.N,/SDA0*%
X77200000Y-22761091D03*
X77477817Y-24150001D03*
%TO.N,/USB_DP*%
X74270000Y-16121000D03*
%TO.N,/USB_DN*%
X75190000Y-16170000D03*
X77680000Y-13660000D03*
%TO.N,/USB_DP*%
X76240735Y-14250735D03*
%TO.N,/SD_PWR_ON*%
X78560000Y-19590000D03*
X69200000Y-21010000D03*
%TO.N,GND*%
X51520000Y-25530000D03*
X46710000Y-25510000D03*
%TO.N,/SD_DAT2*%
X78690000Y-16806500D03*
X52538402Y-17404004D03*
%TO.N,/SD_DAT3*%
X80797985Y-17412015D03*
X52950000Y-18090000D03*
%TO.N,/SD_CMD*%
X47440000Y-22180000D03*
X80699750Y-22949750D03*
%TO.N,/SCL0*%
X57950000Y-37833500D03*
%TD*%
D16*
%TO.N,+5V*%
X36017478Y-22200000D02*
X36048414Y-22230936D01*
X33200000Y-22200000D02*
X36017478Y-22200000D01*
X33000000Y-22400000D02*
X33200000Y-22200000D01*
X64741500Y-23808500D02*
X69000000Y-19550000D01*
X49918443Y-23808500D02*
X64741500Y-23808500D01*
X40315084Y-21579000D02*
X47688943Y-21579000D01*
X47688943Y-21579000D02*
X49918443Y-23808500D01*
D17*
X30500000Y-27200000D02*
X32450000Y-25250000D01*
X30500000Y-27400000D02*
X30500000Y-27200000D01*
%TO.N,/3V3*%
X39850000Y-22260000D02*
X52507000Y-34917000D01*
X38510000Y-22260000D02*
X39850000Y-22260000D01*
X52507000Y-34917000D02*
X54867000Y-34917000D01*
X37800000Y-21550000D02*
X38510000Y-22260000D01*
D18*
%TO.N,/SCL0*%
X56900000Y-37833500D02*
X56900000Y-38933500D01*
D17*
%TO.N,/3V3*%
X54900000Y-37800000D02*
X54900000Y-39100000D01*
D18*
%TO.N,/SCL0*%
X29900000Y-21200000D02*
X45950000Y-37250000D01*
X45950000Y-37250000D02*
X57366500Y-37250000D01*
X29900000Y-20350000D02*
X29900000Y-21200000D01*
X57366500Y-37250000D02*
X57950000Y-37833500D01*
D19*
%TO.N,Net-(U1A-MOUNTING_PADS-PadSH1)*%
X108031500Y-18589000D02*
X110050000Y-20607500D01*
D16*
%TO.N,GND*%
X79800000Y-19590000D02*
X79800000Y-20790000D01*
D20*
X40000000Y-28800000D02*
X40050000Y-28750000D01*
X40050000Y-28750000D02*
X40050000Y-26450000D01*
D18*
%TO.N,/SDA0*%
X77200000Y-22761091D02*
X77200000Y-23872184D01*
X77200000Y-23872184D02*
X77477817Y-24150001D01*
D16*
%TO.N,/SD_CMD*%
X50010000Y-24750000D02*
X47440000Y-22180000D01*
X78269000Y-24351000D02*
X77870000Y-24750000D01*
X78298943Y-24351000D02*
X78269000Y-24351000D01*
X78651000Y-23998943D02*
X78298943Y-24351000D01*
X80699750Y-22949750D02*
X79670250Y-22949750D01*
X77870000Y-24750000D02*
X50010000Y-24750000D01*
X79670250Y-22949750D02*
X78651000Y-23969000D01*
X78651000Y-23969000D02*
X78651000Y-23998943D01*
%TO.N,/SD_PWR_ON*%
X77140000Y-21010000D02*
X78560000Y-19590000D01*
X69200000Y-21010000D02*
X77140000Y-21010000D01*
D17*
%TO.N,GND*%
X46710000Y-25510000D02*
X51500000Y-25510000D01*
X51500000Y-25510000D02*
X51520000Y-25530000D01*
D16*
%TO.N,/SD_DAT2*%
X53135906Y-16806500D02*
X78690000Y-16806500D01*
X52538402Y-17404004D02*
X53135906Y-16806500D01*
%TO.N,/SD_DAT3*%
X53633500Y-17406500D02*
X80792470Y-17406500D01*
X52950000Y-18090000D02*
X53633500Y-17406500D01*
X80792470Y-17406500D02*
X80797985Y-17412015D01*
%TO.N,/USB_DN*%
X77680000Y-13660000D02*
X75240000Y-16100000D01*
X75240000Y-16120000D02*
X75190000Y-16170000D01*
X75240000Y-16100000D02*
X75240000Y-16120000D01*
%TO.N,/USB_DP*%
X76189265Y-14250735D02*
X74419000Y-16021000D01*
X74170000Y-16021000D02*
X74270000Y-16121000D01*
X76240735Y-14250735D02*
X76189265Y-14250735D01*
X74419000Y-16021000D02*
X74170000Y-16021000D01*
%TD*%
%TA.AperFunction,NonConductor*%
G36*
X130542539Y-12520185D02*
G01*
X130588294Y-12572989D01*
X130599500Y-12624500D01*
X130599500Y-60275500D01*
X130579815Y-60342539D01*
X130527011Y-60388294D01*
X130475500Y-60399500D01*
X19774500Y-60399500D01*
X19707461Y-60379815D01*
X19661706Y-60327011D01*
X19650500Y-60275500D01*
X19650500Y-53440447D01*
X58649500Y-53440447D01*
X58649500Y-53774552D01*
X58682247Y-54107048D01*
X58682250Y-54107065D01*
X58747425Y-54434730D01*
X58747428Y-54434741D01*
X58844418Y-54754477D01*
X58972278Y-55063156D01*
X58972280Y-55063161D01*
X59129769Y-55357803D01*
X59129780Y-55357821D01*
X59315393Y-55635609D01*
X59315403Y-55635623D01*
X59527361Y-55893895D01*
X59763604Y-56130138D01*
X59763609Y-56130142D01*
X59763610Y-56130143D01*
X60021882Y-56342101D01*
X60299685Y-56527724D01*
X60299694Y-56527729D01*
X60299696Y-56527730D01*
X60594338Y-56685219D01*
X60594340Y-56685219D01*
X60594346Y-56685223D01*
X60903024Y-56813082D01*
X61222749Y-56910069D01*
X61222755Y-56910070D01*
X61222758Y-56910071D01*
X61222769Y-56910074D01*
X61428243Y-56950944D01*
X61550441Y-56975251D01*
X61882944Y-57008000D01*
X61882947Y-57008000D01*
X62217053Y-57008000D01*
X62217056Y-57008000D01*
X62549559Y-56975251D01*
X62711757Y-56942987D01*
X62877230Y-56910074D01*
X62877241Y-56910071D01*
X62877241Y-56910070D01*
X62877251Y-56910069D01*
X63196976Y-56813082D01*
X63505654Y-56685223D01*
X63800315Y-56527724D01*
X64078118Y-56342101D01*
X64336390Y-56130143D01*
X64572643Y-55893890D01*
X64784601Y-55635618D01*
X64970224Y-55357815D01*
X65127723Y-55063154D01*
X65255582Y-54754476D01*
X65352569Y-54434751D01*
X65352571Y-54434741D01*
X65352574Y-54434730D01*
X65385487Y-54269257D01*
X65417751Y-54107059D01*
X65450500Y-53774556D01*
X65450500Y-53440447D01*
X106649500Y-53440447D01*
X106649500Y-53774552D01*
X106682247Y-54107048D01*
X106682250Y-54107065D01*
X106747425Y-54434730D01*
X106747428Y-54434741D01*
X106844418Y-54754477D01*
X106972278Y-55063156D01*
X106972280Y-55063161D01*
X107129769Y-55357803D01*
X107129780Y-55357821D01*
X107315393Y-55635609D01*
X107315403Y-55635623D01*
X107527361Y-55893895D01*
X107763604Y-56130138D01*
X107763609Y-56130142D01*
X107763610Y-56130143D01*
X108021882Y-56342101D01*
X108299685Y-56527724D01*
X108299694Y-56527729D01*
X108299696Y-56527730D01*
X108594338Y-56685219D01*
X108594340Y-56685219D01*
X108594346Y-56685223D01*
X108903024Y-56813082D01*
X109222749Y-56910069D01*
X109222755Y-56910070D01*
X109222758Y-56910071D01*
X109222769Y-56910074D01*
X109428243Y-56950944D01*
X109550441Y-56975251D01*
X109882944Y-57008000D01*
X109882947Y-57008000D01*
X110217053Y-57008000D01*
X110217056Y-57008000D01*
X110549559Y-56975251D01*
X110711757Y-56942987D01*
X110877230Y-56910074D01*
X110877241Y-56910071D01*
X110877241Y-56910070D01*
X110877251Y-56910069D01*
X111196976Y-56813082D01*
X111505654Y-56685223D01*
X111800315Y-56527724D01*
X112078118Y-56342101D01*
X112336390Y-56130143D01*
X112572643Y-55893890D01*
X112784601Y-55635618D01*
X112970224Y-55357815D01*
X113127723Y-55063154D01*
X113255582Y-54754476D01*
X113352569Y-54434751D01*
X113352571Y-54434741D01*
X113352574Y-54434730D01*
X113385487Y-54269257D01*
X113417751Y-54107059D01*
X113450500Y-53774556D01*
X113450500Y-53440444D01*
X113417751Y-53107941D01*
X113393444Y-52985743D01*
X113352574Y-52780269D01*
X113352571Y-52780258D01*
X113352570Y-52780255D01*
X113352569Y-52780249D01*
X113255582Y-52460524D01*
X113127723Y-52151846D01*
X112970224Y-51857185D01*
X112784601Y-51579382D01*
X112572643Y-51321110D01*
X112572642Y-51321109D01*
X112572638Y-51321104D01*
X112336395Y-51084861D01*
X112078123Y-50872903D01*
X112078122Y-50872902D01*
X112078118Y-50872899D01*
X111800315Y-50687276D01*
X111800310Y-50687273D01*
X111800303Y-50687269D01*
X111505661Y-50529780D01*
X111505656Y-50529778D01*
X111196977Y-50401918D01*
X110877241Y-50304928D01*
X110877230Y-50304925D01*
X110549565Y-50239750D01*
X110549548Y-50239747D01*
X110298108Y-50214983D01*
X110217056Y-50207000D01*
X109882944Y-50207000D01*
X109807982Y-50214383D01*
X109550451Y-50239747D01*
X109550434Y-50239750D01*
X109222769Y-50304925D01*
X109222758Y-50304928D01*
X108903022Y-50401918D01*
X108594343Y-50529778D01*
X108594338Y-50529780D01*
X108299696Y-50687269D01*
X108299678Y-50687280D01*
X108021890Y-50872893D01*
X108021876Y-50872903D01*
X107763604Y-51084861D01*
X107527361Y-51321104D01*
X107315403Y-51579376D01*
X107315393Y-51579390D01*
X107129780Y-51857178D01*
X107129769Y-51857196D01*
X106972280Y-52151838D01*
X106972278Y-52151843D01*
X106844418Y-52460522D01*
X106747428Y-52780258D01*
X106747425Y-52780269D01*
X106682250Y-53107934D01*
X106682247Y-53107951D01*
X106649500Y-53440447D01*
X65450500Y-53440447D01*
X65450500Y-53440444D01*
X65417751Y-53107941D01*
X65393444Y-52985743D01*
X65352574Y-52780269D01*
X65352571Y-52780258D01*
X65352570Y-52780255D01*
X65352569Y-52780249D01*
X65255582Y-52460524D01*
X65127723Y-52151846D01*
X64970224Y-51857185D01*
X64784601Y-51579382D01*
X64572643Y-51321110D01*
X64572642Y-51321109D01*
X64572638Y-51321104D01*
X64336395Y-51084861D01*
X64078123Y-50872903D01*
X64078122Y-50872902D01*
X64078118Y-50872899D01*
X63800315Y-50687276D01*
X63800310Y-50687273D01*
X63800303Y-50687269D01*
X63505661Y-50529780D01*
X63505656Y-50529778D01*
X63196977Y-50401918D01*
X62877241Y-50304928D01*
X62877230Y-50304925D01*
X62549565Y-50239750D01*
X62549548Y-50239747D01*
X62298108Y-50214983D01*
X62217056Y-50207000D01*
X61882944Y-50207000D01*
X61807982Y-50214383D01*
X61550451Y-50239747D01*
X61550434Y-50239750D01*
X61222769Y-50304925D01*
X61222758Y-50304928D01*
X60903022Y-50401918D01*
X60594343Y-50529778D01*
X60594338Y-50529780D01*
X60299696Y-50687269D01*
X60299678Y-50687280D01*
X60021890Y-50872893D01*
X60021876Y-50872903D01*
X59763604Y-51084861D01*
X59527361Y-51321104D01*
X59315403Y-51579376D01*
X59315393Y-51579390D01*
X59129780Y-51857178D01*
X59129769Y-51857196D01*
X58972280Y-52151838D01*
X58972278Y-52151843D01*
X58844418Y-52460522D01*
X58747428Y-52780258D01*
X58747425Y-52780269D01*
X58682250Y-53107934D01*
X58682247Y-53107951D01*
X58649500Y-53440447D01*
X19650500Y-53440447D01*
X19650500Y-20625441D01*
X21282000Y-20625441D01*
X21282000Y-20874558D01*
X21282001Y-20874575D01*
X21312606Y-21107048D01*
X21314518Y-21121565D01*
X21374521Y-21345498D01*
X21378998Y-21362207D01*
X21474330Y-21592361D01*
X21474337Y-21592376D01*
X21598900Y-21808126D01*
X21750560Y-22005774D01*
X21750566Y-22005781D01*
X21926718Y-22181933D01*
X21926725Y-22181939D01*
X22124373Y-22333599D01*
X22340123Y-22458162D01*
X22340138Y-22458169D01*
X22390048Y-22478842D01*
X22570293Y-22553502D01*
X22810935Y-22617982D01*
X23057935Y-22650500D01*
X23057942Y-22650500D01*
X23307058Y-22650500D01*
X23307065Y-22650500D01*
X23554065Y-22617982D01*
X23794707Y-22553502D01*
X24024873Y-22458164D01*
X24240627Y-22333599D01*
X24438276Y-22181938D01*
X24614438Y-22005776D01*
X24766099Y-21808127D01*
X24890664Y-21592373D01*
X24986002Y-21362207D01*
X25050482Y-21121565D01*
X25083000Y-20874565D01*
X25083000Y-20625435D01*
X25050482Y-20378435D01*
X25021736Y-20271153D01*
X29099500Y-20271153D01*
X29099500Y-20428846D01*
X29130261Y-20583489D01*
X29130264Y-20583501D01*
X29190602Y-20729172D01*
X29190609Y-20729185D01*
X29278210Y-20860288D01*
X29278213Y-20860292D01*
X29313180Y-20895258D01*
X29346666Y-20956580D01*
X29349500Y-20982940D01*
X29349500Y-21272474D01*
X29369067Y-21345502D01*
X29387014Y-21412480D01*
X29387016Y-21412485D01*
X29449979Y-21521542D01*
X29459489Y-21538013D01*
X29459491Y-21538016D01*
X32216259Y-24294784D01*
X32249744Y-24356107D01*
X32244760Y-24425799D01*
X32202888Y-24481732D01*
X32176031Y-24497026D01*
X32070824Y-24540604D01*
X32070814Y-24540609D01*
X31939711Y-24628210D01*
X31939707Y-24628213D01*
X31828213Y-24739707D01*
X31828207Y-24739715D01*
X31740607Y-24870818D01*
X31740605Y-24870822D01*
X31730805Y-24894480D01*
X31703927Y-24934704D01*
X29917052Y-26721578D01*
X29917049Y-26721581D01*
X29881691Y-26774498D01*
X29881692Y-26774499D01*
X29834914Y-26844508D01*
X29778342Y-26981084D01*
X29778340Y-26981090D01*
X29754186Y-27102518D01*
X29747132Y-27125774D01*
X29730262Y-27166503D01*
X29730262Y-27166505D01*
X29699500Y-27321155D01*
X29699500Y-27478846D01*
X29730261Y-27633489D01*
X29730264Y-27633501D01*
X29790602Y-27779172D01*
X29790609Y-27779185D01*
X29878210Y-27910288D01*
X29878213Y-27910292D01*
X29989707Y-28021786D01*
X29989711Y-28021789D01*
X30120814Y-28109390D01*
X30120827Y-28109397D01*
X30266498Y-28169735D01*
X30266503Y-28169737D01*
X30421153Y-28200499D01*
X30421156Y-28200500D01*
X30421158Y-28200500D01*
X30578844Y-28200500D01*
X30578845Y-28200499D01*
X30733497Y-28169737D01*
X30879179Y-28109394D01*
X31010289Y-28021789D01*
X31121789Y-27910289D01*
X31209394Y-27779179D01*
X31269737Y-27633497D01*
X31297625Y-27493294D01*
X31330009Y-27431384D01*
X31331504Y-27429862D01*
X32765295Y-25996070D01*
X32805519Y-25969193D01*
X32829179Y-25959394D01*
X32960289Y-25871789D01*
X33071789Y-25760289D01*
X33159394Y-25629179D01*
X33159395Y-25629176D01*
X33159397Y-25629173D01*
X33202973Y-25523969D01*
X33246813Y-25469565D01*
X33313107Y-25447500D01*
X33380807Y-25464779D01*
X33405215Y-25483740D01*
X45611986Y-37690510D01*
X45665070Y-37721158D01*
X45737515Y-37762984D01*
X45877525Y-37800500D01*
X45877526Y-37800500D01*
X46022474Y-37800500D01*
X53982152Y-37800500D01*
X54010331Y-37808774D01*
X54039171Y-37814387D01*
X54043476Y-37818506D01*
X54049191Y-37820185D01*
X54068422Y-37842379D01*
X54089651Y-37862694D01*
X54092421Y-37870075D01*
X54094946Y-37872989D01*
X54102709Y-37895484D01*
X54103292Y-37897909D01*
X54130263Y-38033497D01*
X54143781Y-38066133D01*
X54146057Y-38075588D01*
X54145593Y-38084964D01*
X54149500Y-38104604D01*
X54149500Y-38795396D01*
X54140062Y-38842844D01*
X54130263Y-38866503D01*
X54130262Y-38866506D01*
X54130260Y-38866511D01*
X54099500Y-39021153D01*
X54099500Y-39178846D01*
X54130261Y-39333489D01*
X54130264Y-39333501D01*
X54190602Y-39479172D01*
X54190609Y-39479185D01*
X54278210Y-39610288D01*
X54278213Y-39610292D01*
X54389707Y-39721786D01*
X54389711Y-39721789D01*
X54520814Y-39809390D01*
X54520827Y-39809397D01*
X54666498Y-39869735D01*
X54666503Y-39869737D01*
X54821153Y-39900499D01*
X54821156Y-39900500D01*
X54821158Y-39900500D01*
X54978844Y-39900500D01*
X54978845Y-39900499D01*
X55133497Y-39869737D01*
X55279179Y-39809394D01*
X55410289Y-39721789D01*
X55521789Y-39610289D01*
X55609394Y-39479179D01*
X55669737Y-39333497D01*
X55700500Y-39178842D01*
X55700500Y-39021158D01*
X55700500Y-39021155D01*
X55700499Y-39021153D01*
X55669739Y-38866511D01*
X55669738Y-38866508D01*
X55669737Y-38866503D01*
X55659937Y-38842844D01*
X55650500Y-38795396D01*
X55650500Y-38104604D01*
X55653943Y-38075588D01*
X55656218Y-38066133D01*
X55669737Y-38033497D01*
X55696707Y-37897909D01*
X55697291Y-37895484D01*
X55713518Y-37867258D01*
X55728616Y-37838397D01*
X55730840Y-37837130D01*
X55732116Y-37834912D01*
X55761027Y-37819940D01*
X55789332Y-37803823D01*
X55792971Y-37803398D01*
X55794161Y-37802783D01*
X55796431Y-37802995D01*
X55817848Y-37800500D01*
X55976097Y-37800500D01*
X56043136Y-37820185D01*
X56088891Y-37872989D01*
X56097910Y-37906447D01*
X56098311Y-37906368D01*
X56130261Y-38066989D01*
X56130264Y-38067001D01*
X56190602Y-38212672D01*
X56190609Y-38212685D01*
X56258713Y-38314609D01*
X56279591Y-38381287D01*
X56261107Y-38448667D01*
X56258713Y-38452391D01*
X56190609Y-38554314D01*
X56190602Y-38554327D01*
X56130264Y-38699998D01*
X56130261Y-38700010D01*
X56099500Y-38854653D01*
X56099500Y-39012346D01*
X56130261Y-39166989D01*
X56130264Y-39167001D01*
X56190602Y-39312672D01*
X56190609Y-39312685D01*
X56278210Y-39443788D01*
X56278213Y-39443792D01*
X56389707Y-39555286D01*
X56389711Y-39555289D01*
X56520814Y-39642890D01*
X56520827Y-39642897D01*
X56666498Y-39703235D01*
X56666503Y-39703237D01*
X56759770Y-39721789D01*
X56821153Y-39733999D01*
X56821156Y-39734000D01*
X56821158Y-39734000D01*
X56978844Y-39734000D01*
X56978845Y-39733999D01*
X57133497Y-39703237D01*
X57279179Y-39642894D01*
X57410289Y-39555289D01*
X57521789Y-39443789D01*
X57609394Y-39312679D01*
X57669737Y-39166997D01*
X57700500Y-39012342D01*
X57700500Y-38854658D01*
X57683974Y-38771577D01*
X57690201Y-38701988D01*
X57733063Y-38646810D01*
X57798953Y-38623565D01*
X57829783Y-38625770D01*
X57871156Y-38634000D01*
X57871158Y-38634000D01*
X58028844Y-38634000D01*
X58028845Y-38633999D01*
X58183497Y-38603237D01*
X58301592Y-38554321D01*
X58329172Y-38542897D01*
X58329172Y-38542896D01*
X58329179Y-38542894D01*
X58460289Y-38455289D01*
X58571789Y-38343789D01*
X58659394Y-38212679D01*
X58719737Y-38066997D01*
X58750500Y-37912342D01*
X58750500Y-37754658D01*
X58750500Y-37754655D01*
X58750499Y-37754653D01*
X58719738Y-37600010D01*
X58719737Y-37600003D01*
X58719735Y-37599998D01*
X58659397Y-37454327D01*
X58659390Y-37454314D01*
X58571789Y-37323211D01*
X58571786Y-37323207D01*
X58460292Y-37211713D01*
X58460288Y-37211710D01*
X58329185Y-37124109D01*
X58329172Y-37124102D01*
X58183501Y-37063764D01*
X58183489Y-37063761D01*
X58028845Y-37033000D01*
X58028842Y-37033000D01*
X57979387Y-37033000D01*
X57912348Y-37013315D01*
X57891706Y-36996681D01*
X57704516Y-36809491D01*
X57704515Y-36809490D01*
X57578985Y-36737016D01*
X57578986Y-36737016D01*
X57543982Y-36727637D01*
X57438975Y-36699500D01*
X57438972Y-36699500D01*
X46229386Y-36699500D01*
X46162347Y-36679815D01*
X46141705Y-36663181D01*
X38271422Y-28792897D01*
X38189833Y-28711308D01*
X39099500Y-28711308D01*
X39099500Y-28718555D01*
X39099500Y-28888696D01*
X39134103Y-29062658D01*
X39134105Y-29062666D01*
X39201988Y-29226548D01*
X39300534Y-29374034D01*
X39300540Y-29374041D01*
X39425958Y-29499459D01*
X39425965Y-29499465D01*
X39573451Y-29598011D01*
X39573452Y-29598011D01*
X39573453Y-29598012D01*
X39737334Y-29665895D01*
X39911303Y-29700499D01*
X39911307Y-29700500D01*
X39911308Y-29700500D01*
X40088693Y-29700500D01*
X40088694Y-29700499D01*
X40262666Y-29665895D01*
X40426547Y-29598012D01*
X40574036Y-29499464D01*
X40749464Y-29324035D01*
X40761998Y-29305276D01*
X40848013Y-29176547D01*
X40907266Y-29033497D01*
X40915895Y-29012666D01*
X40950500Y-28838691D01*
X40950500Y-28661308D01*
X40950500Y-26361309D01*
X40950500Y-26361306D01*
X40950499Y-26361304D01*
X40915896Y-26187341D01*
X40915893Y-26187332D01*
X40848016Y-26023459D01*
X40848009Y-26023446D01*
X40749464Y-25875965D01*
X40749461Y-25875961D01*
X40624038Y-25750538D01*
X40624034Y-25750535D01*
X40476553Y-25651990D01*
X40476540Y-25651983D01*
X40312667Y-25584106D01*
X40312658Y-25584103D01*
X40138694Y-25549500D01*
X40138691Y-25549500D01*
X39961309Y-25549500D01*
X39961306Y-25549500D01*
X39787341Y-25584103D01*
X39787332Y-25584106D01*
X39623459Y-25651983D01*
X39623446Y-25651990D01*
X39475965Y-25750535D01*
X39475961Y-25750538D01*
X39350538Y-25875961D01*
X39350535Y-25875965D01*
X39251990Y-26023446D01*
X39251983Y-26023459D01*
X39184106Y-26187332D01*
X39184103Y-26187341D01*
X39149500Y-26361304D01*
X39149500Y-28475502D01*
X39148018Y-28482948D01*
X39146663Y-28501875D01*
X39144304Y-28512709D01*
X39134105Y-28537334D01*
X39099500Y-28711308D01*
X38189833Y-28711308D01*
X32890706Y-23412181D01*
X32857221Y-23350858D01*
X32862205Y-23281166D01*
X32904077Y-23225233D01*
X32969541Y-23200816D01*
X32978387Y-23200500D01*
X33078844Y-23200500D01*
X33078845Y-23200499D01*
X33233497Y-23169737D01*
X33379179Y-23109394D01*
X33510289Y-23021789D01*
X33621789Y-22910289D01*
X33658325Y-22855610D01*
X33711937Y-22810804D01*
X33761427Y-22800500D01*
X35434537Y-22800500D01*
X35501576Y-22820185D01*
X35522218Y-22836819D01*
X35538121Y-22852722D01*
X35538125Y-22852725D01*
X35669228Y-22940326D01*
X35669241Y-22940333D01*
X35800207Y-22994580D01*
X35814917Y-23000673D01*
X35963283Y-23030185D01*
X35969567Y-23031435D01*
X35969570Y-23031436D01*
X35969572Y-23031436D01*
X36127258Y-23031436D01*
X36127259Y-23031435D01*
X36281911Y-23000673D01*
X36427593Y-22940330D01*
X36558703Y-22852725D01*
X36670203Y-22741225D01*
X36757808Y-22610115D01*
X36818151Y-22464433D01*
X36848914Y-22309778D01*
X36848914Y-22152094D01*
X36848914Y-22152091D01*
X36848913Y-22152089D01*
X36831223Y-22063156D01*
X36818151Y-21997439D01*
X36802888Y-21960591D01*
X36757811Y-21851763D01*
X36757804Y-21851750D01*
X36670203Y-21720647D01*
X36670200Y-21720643D01*
X36558706Y-21609149D01*
X36558702Y-21609146D01*
X36497374Y-21568168D01*
X36427599Y-21521545D01*
X36427586Y-21521538D01*
X36305944Y-21471153D01*
X36999500Y-21471153D01*
X36999500Y-21628846D01*
X37030261Y-21783489D01*
X37030264Y-21783501D01*
X37090602Y-21929172D01*
X37090609Y-21929185D01*
X37178210Y-22060288D01*
X37178213Y-22060292D01*
X37289710Y-22171789D01*
X37377315Y-22230324D01*
X37420821Y-22259394D01*
X37420826Y-22259396D01*
X37420828Y-22259397D01*
X37444473Y-22269191D01*
X37484705Y-22296072D01*
X37927049Y-22738416D01*
X38031584Y-22842951D01*
X38031587Y-22842953D01*
X38031588Y-22842954D01*
X38154503Y-22925083D01*
X38154506Y-22925085D01*
X38204665Y-22945861D01*
X38211080Y-22948518D01*
X38291088Y-22981659D01*
X38407241Y-23004763D01*
X38430380Y-23009365D01*
X38436081Y-23010500D01*
X38436082Y-23010500D01*
X38436083Y-23010500D01*
X38583918Y-23010500D01*
X39487770Y-23010500D01*
X39554809Y-23030185D01*
X39575451Y-23046819D01*
X52028578Y-35499947D01*
X52028585Y-35499953D01*
X52086704Y-35538786D01*
X52086706Y-35538787D01*
X52086709Y-35538789D01*
X52151505Y-35582084D01*
X52288087Y-35638658D01*
X52288091Y-35638658D01*
X52288092Y-35638659D01*
X52433079Y-35667500D01*
X52433082Y-35667500D01*
X52433083Y-35667500D01*
X52580917Y-35667500D01*
X54562396Y-35667500D01*
X54609844Y-35676937D01*
X54633503Y-35686737D01*
X54633508Y-35686738D01*
X54633511Y-35686739D01*
X54788153Y-35717499D01*
X54788156Y-35717500D01*
X54788158Y-35717500D01*
X54945844Y-35717500D01*
X54945845Y-35717499D01*
X55100497Y-35686737D01*
X55246179Y-35626394D01*
X55377289Y-35538789D01*
X55488789Y-35427289D01*
X55576394Y-35296179D01*
X55636737Y-35150497D01*
X55667500Y-34995842D01*
X55667500Y-34838158D01*
X55667500Y-34838155D01*
X55667499Y-34838153D01*
X55636738Y-34683510D01*
X55636737Y-34683503D01*
X55636735Y-34683498D01*
X55576397Y-34537827D01*
X55576390Y-34537814D01*
X55488789Y-34406711D01*
X55488786Y-34406707D01*
X55377292Y-34295213D01*
X55377288Y-34295210D01*
X55246185Y-34207609D01*
X55246172Y-34207602D01*
X55100501Y-34147264D01*
X55100489Y-34147261D01*
X54945845Y-34116500D01*
X54945842Y-34116500D01*
X54788158Y-34116500D01*
X54788155Y-34116500D01*
X54633511Y-34147260D01*
X54633506Y-34147262D01*
X54633504Y-34147262D01*
X54633503Y-34147263D01*
X54609844Y-34157062D01*
X54562396Y-34166500D01*
X52869230Y-34166500D01*
X52802191Y-34146815D01*
X52781549Y-34130181D01*
X41042549Y-22391181D01*
X41009064Y-22329858D01*
X41014048Y-22260166D01*
X41055920Y-22204233D01*
X41121384Y-22179816D01*
X41130230Y-22179500D01*
X46521954Y-22179500D01*
X46588993Y-22199185D01*
X46634748Y-22251989D01*
X46643571Y-22279309D01*
X46670261Y-22413489D01*
X46670263Y-22413497D01*
X46730602Y-22559172D01*
X46730609Y-22559185D01*
X46818210Y-22690288D01*
X46818213Y-22690292D01*
X46929707Y-22801786D01*
X46929711Y-22801789D01*
X47060814Y-22889390D01*
X47060827Y-22889397D01*
X47197145Y-22945861D01*
X47206503Y-22949737D01*
X47271147Y-22962595D01*
X47361849Y-22980638D01*
X47423760Y-23013023D01*
X47425339Y-23014574D01*
X48958584Y-24547819D01*
X48992069Y-24609142D01*
X48987085Y-24678834D01*
X48945213Y-24734767D01*
X48879749Y-24759184D01*
X48870903Y-24759500D01*
X47014604Y-24759500D01*
X46967155Y-24750062D01*
X46943497Y-24740263D01*
X46943493Y-24740262D01*
X46943488Y-24740260D01*
X46788845Y-24709500D01*
X46788842Y-24709500D01*
X46631158Y-24709500D01*
X46631155Y-24709500D01*
X46476510Y-24740261D01*
X46476498Y-24740264D01*
X46330827Y-24800602D01*
X46330814Y-24800609D01*
X46199711Y-24888210D01*
X46199707Y-24888213D01*
X46088213Y-24999707D01*
X46088210Y-24999711D01*
X46000609Y-25130814D01*
X46000602Y-25130827D01*
X45940264Y-25276498D01*
X45940261Y-25276510D01*
X45909500Y-25431153D01*
X45909500Y-25588846D01*
X45940261Y-25743489D01*
X45940264Y-25743501D01*
X46000602Y-25889172D01*
X46000609Y-25889185D01*
X46088210Y-26020288D01*
X46088213Y-26020292D01*
X46199707Y-26131786D01*
X46199711Y-26131789D01*
X46330814Y-26219390D01*
X46330827Y-26219397D01*
X46430060Y-26260500D01*
X46476503Y-26279737D01*
X46631153Y-26310499D01*
X46631156Y-26310500D01*
X46631158Y-26310500D01*
X46788844Y-26310500D01*
X46788845Y-26310499D01*
X46865152Y-26295320D01*
X46943488Y-26279739D01*
X46943489Y-26279738D01*
X46943497Y-26279737D01*
X46967155Y-26269937D01*
X47014604Y-26260500D01*
X51167111Y-26260500D01*
X51214563Y-26269939D01*
X51238223Y-26279739D01*
X51286503Y-26299737D01*
X51441153Y-26330499D01*
X51441156Y-26330500D01*
X51441158Y-26330500D01*
X51598844Y-26330500D01*
X51598845Y-26330499D01*
X51753497Y-26299737D01*
X51899179Y-26239394D01*
X52030289Y-26151789D01*
X52141789Y-26040289D01*
X52229394Y-25909179D01*
X52289737Y-25763497D01*
X52320500Y-25608842D01*
X52320500Y-25474500D01*
X52340185Y-25407461D01*
X52392989Y-25361706D01*
X52444500Y-25350500D01*
X77783331Y-25350500D01*
X77783347Y-25350501D01*
X77790943Y-25350501D01*
X77949054Y-25350501D01*
X77949057Y-25350501D01*
X78101785Y-25309577D01*
X78159070Y-25276503D01*
X78238716Y-25230520D01*
X78350520Y-25118716D01*
X78350520Y-25118714D01*
X78360724Y-25108511D01*
X78360728Y-25108506D01*
X78585268Y-24883965D01*
X78610945Y-24864263D01*
X78667659Y-24831520D01*
X78779463Y-24719716D01*
X78779464Y-24719714D01*
X79131520Y-24367659D01*
X79164262Y-24310946D01*
X79183965Y-24285268D01*
X79882666Y-23586569D01*
X79909593Y-23571865D01*
X79935412Y-23555273D01*
X79941612Y-23554381D01*
X79943989Y-23553084D01*
X79970347Y-23550250D01*
X80119984Y-23550250D01*
X80187023Y-23569935D01*
X80188875Y-23571148D01*
X80320564Y-23659140D01*
X80320577Y-23659147D01*
X80466248Y-23719485D01*
X80466253Y-23719487D01*
X80620903Y-23750249D01*
X80620906Y-23750250D01*
X80620908Y-23750250D01*
X80778594Y-23750250D01*
X80778595Y-23750249D01*
X80933247Y-23719487D01*
X81078929Y-23659144D01*
X81210039Y-23571539D01*
X81321539Y-23460039D01*
X81409144Y-23328929D01*
X81469487Y-23183247D01*
X81500250Y-23028592D01*
X81500250Y-22870908D01*
X81500250Y-22870905D01*
X81500249Y-22870903D01*
X81496633Y-22852722D01*
X81469487Y-22716253D01*
X81458734Y-22690292D01*
X81409147Y-22570577D01*
X81409140Y-22570564D01*
X81321539Y-22439461D01*
X81321536Y-22439457D01*
X81210042Y-22327963D01*
X81210038Y-22327960D01*
X81078935Y-22240359D01*
X81078922Y-22240352D01*
X80933251Y-22180014D01*
X80933239Y-22180011D01*
X80778595Y-22149250D01*
X80778592Y-22149250D01*
X80620908Y-22149250D01*
X80620905Y-22149250D01*
X80466260Y-22180011D01*
X80466248Y-22180014D01*
X80320577Y-22240352D01*
X80320564Y-22240359D01*
X80188875Y-22328352D01*
X80122197Y-22349230D01*
X80119984Y-22349250D01*
X79749307Y-22349250D01*
X79591193Y-22349250D01*
X79438465Y-22390173D01*
X79438464Y-22390173D01*
X79438462Y-22390174D01*
X79438459Y-22390175D01*
X79398068Y-22413496D01*
X79398066Y-22413497D01*
X79301540Y-22469225D01*
X79301532Y-22469231D01*
X78282286Y-23488477D01*
X78282286Y-23488478D01*
X78282284Y-23488480D01*
X78242553Y-23528211D01*
X78203010Y-23567754D01*
X78141686Y-23601238D01*
X78071995Y-23596253D01*
X78027648Y-23567753D01*
X77988109Y-23528214D01*
X77988105Y-23528211D01*
X77857585Y-23441000D01*
X77812780Y-23387388D01*
X77804073Y-23318063D01*
X77823373Y-23269009D01*
X77909394Y-23140270D01*
X77969737Y-22994588D01*
X78000500Y-22839933D01*
X78000500Y-22682249D01*
X78000500Y-22682246D01*
X78000499Y-22682244D01*
X77991223Y-22635609D01*
X77969737Y-22527594D01*
X77969735Y-22527589D01*
X77909397Y-22381918D01*
X77909390Y-22381905D01*
X77821789Y-22250802D01*
X77821786Y-22250798D01*
X77710292Y-22139304D01*
X77710288Y-22139301D01*
X77579185Y-22051700D01*
X77579172Y-22051693D01*
X77433501Y-21991355D01*
X77433489Y-21991352D01*
X77278845Y-21960591D01*
X77278842Y-21960591D01*
X77121158Y-21960591D01*
X77121155Y-21960591D01*
X76966510Y-21991352D01*
X76966498Y-21991355D01*
X76820827Y-22051693D01*
X76820814Y-22051700D01*
X76689711Y-22139301D01*
X76689707Y-22139304D01*
X76578213Y-22250798D01*
X76578210Y-22250802D01*
X76490609Y-22381905D01*
X76490602Y-22381918D01*
X76430264Y-22527589D01*
X76430261Y-22527601D01*
X76399500Y-22682244D01*
X76399500Y-22839937D01*
X76430261Y-22994580D01*
X76430264Y-22994592D01*
X76490602Y-23140263D01*
X76490609Y-23140276D01*
X76578210Y-23271379D01*
X76578213Y-23271383D01*
X76613180Y-23306349D01*
X76646666Y-23367671D01*
X76649500Y-23394031D01*
X76649500Y-23944658D01*
X76662562Y-23993407D01*
X76660899Y-24063257D01*
X76621736Y-24121119D01*
X76557507Y-24148623D01*
X76542787Y-24149500D01*
X65549097Y-24149500D01*
X65482058Y-24129815D01*
X65436303Y-24077011D01*
X65426359Y-24007853D01*
X65455384Y-23944297D01*
X65461416Y-23937819D01*
X66840063Y-22559172D01*
X68220678Y-21178556D01*
X68281999Y-21145073D01*
X68351691Y-21150057D01*
X68407624Y-21191929D01*
X68428077Y-21237791D01*
X68428494Y-21237665D01*
X68429499Y-21240978D01*
X68429974Y-21242043D01*
X68430263Y-21243497D01*
X68430264Y-21243501D01*
X68490602Y-21389172D01*
X68490609Y-21389185D01*
X68578210Y-21520288D01*
X68578213Y-21520292D01*
X68689707Y-21631786D01*
X68689711Y-21631789D01*
X68820814Y-21719390D01*
X68820827Y-21719397D01*
X68962816Y-21778210D01*
X68966503Y-21779737D01*
X69109223Y-21808126D01*
X69121153Y-21810499D01*
X69121156Y-21810500D01*
X69121158Y-21810500D01*
X69278844Y-21810500D01*
X69278845Y-21810499D01*
X69433497Y-21779737D01*
X69579179Y-21719394D01*
X69622259Y-21690609D01*
X69710875Y-21631398D01*
X69777553Y-21610520D01*
X69779766Y-21610500D01*
X77053331Y-21610500D01*
X77053347Y-21610501D01*
X77060943Y-21610501D01*
X77219054Y-21610501D01*
X77219057Y-21610501D01*
X77371785Y-21569577D01*
X77441200Y-21529500D01*
X77508716Y-21490520D01*
X77620520Y-21378716D01*
X77620520Y-21378714D01*
X77630724Y-21368511D01*
X77630727Y-21368506D01*
X78574662Y-20424572D01*
X78635983Y-20391089D01*
X78638150Y-20390638D01*
X78699496Y-20378435D01*
X78793497Y-20359737D01*
X78901107Y-20315164D01*
X78970576Y-20307695D01*
X79033055Y-20338970D01*
X79068707Y-20399059D01*
X79066213Y-20468884D01*
X79063120Y-20477177D01*
X79030264Y-20556498D01*
X79030261Y-20556510D01*
X78999500Y-20711153D01*
X78999500Y-20868846D01*
X79030261Y-21023489D01*
X79030264Y-21023501D01*
X79090602Y-21169172D01*
X79090609Y-21169185D01*
X79178210Y-21300288D01*
X79178213Y-21300292D01*
X79289707Y-21411786D01*
X79289711Y-21411789D01*
X79420814Y-21499390D01*
X79420827Y-21499397D01*
X79514063Y-21538016D01*
X79566503Y-21559737D01*
X79721153Y-21590499D01*
X79721156Y-21590500D01*
X79721158Y-21590500D01*
X79878844Y-21590500D01*
X79878845Y-21590499D01*
X80033497Y-21559737D01*
X80179179Y-21499394D01*
X80310289Y-21411789D01*
X80421789Y-21300289D01*
X80509394Y-21169179D01*
X80569737Y-21023497D01*
X80600500Y-20868842D01*
X80600500Y-20711158D01*
X80600500Y-20711155D01*
X80600499Y-20711153D01*
X80583787Y-20627136D01*
X80569737Y-20556503D01*
X80569735Y-20556498D01*
X80540059Y-20484852D01*
X80521665Y-20440444D01*
X106649500Y-20440444D01*
X106649500Y-20774556D01*
X106656006Y-20840609D01*
X106682247Y-21107048D01*
X106682250Y-21107065D01*
X106747425Y-21434730D01*
X106747428Y-21434741D01*
X106844418Y-21754477D01*
X106972278Y-22063156D01*
X106972280Y-22063161D01*
X107129769Y-22357803D01*
X107129780Y-22357821D01*
X107315393Y-22635609D01*
X107315403Y-22635623D01*
X107527361Y-22893895D01*
X107763604Y-23130138D01*
X107763609Y-23130142D01*
X107763610Y-23130143D01*
X108021882Y-23342101D01*
X108299685Y-23527724D01*
X108299694Y-23527729D01*
X108299696Y-23527730D01*
X108594338Y-23685219D01*
X108594340Y-23685219D01*
X108594346Y-23685223D01*
X108903024Y-23813082D01*
X109222749Y-23910069D01*
X109222755Y-23910070D01*
X109222758Y-23910071D01*
X109222769Y-23910074D01*
X109428243Y-23950944D01*
X109550441Y-23975251D01*
X109882944Y-24008000D01*
X109882947Y-24008000D01*
X110217053Y-24008000D01*
X110217056Y-24008000D01*
X110549559Y-23975251D01*
X110711757Y-23942987D01*
X110877230Y-23910074D01*
X110877241Y-23910071D01*
X110877241Y-23910070D01*
X110877251Y-23910069D01*
X111196976Y-23813082D01*
X111505654Y-23685223D01*
X111800315Y-23527724D01*
X112078118Y-23342101D01*
X112336390Y-23130143D01*
X112572643Y-22893890D01*
X112784601Y-22635618D01*
X112970224Y-22357815D01*
X113127723Y-22063154D01*
X113255582Y-21754476D01*
X113352569Y-21434751D01*
X113352571Y-21434741D01*
X113352574Y-21434730D01*
X113391772Y-21237665D01*
X113417751Y-21107059D01*
X113450500Y-20774556D01*
X113450500Y-20440444D01*
X113417751Y-20107941D01*
X113386045Y-19948543D01*
X119489499Y-19948543D01*
X119527947Y-20141829D01*
X119527950Y-20141839D01*
X119603364Y-20323907D01*
X119603371Y-20323920D01*
X119712860Y-20487781D01*
X119712863Y-20487785D01*
X119852214Y-20627136D01*
X119852218Y-20627139D01*
X120016079Y-20736628D01*
X120016092Y-20736635D01*
X120198160Y-20812049D01*
X120198165Y-20812051D01*
X120198169Y-20812051D01*
X120198170Y-20812052D01*
X120391456Y-20850500D01*
X120391459Y-20850500D01*
X120588543Y-20850500D01*
X120718582Y-20824632D01*
X120781835Y-20812051D01*
X120963914Y-20736632D01*
X121127782Y-20627139D01*
X121267139Y-20487782D01*
X121376632Y-20323914D01*
X121452051Y-20141835D01*
X121486067Y-19970827D01*
X121490500Y-19948543D01*
X121490500Y-19431333D01*
X121510185Y-19364294D01*
X121562989Y-19318539D01*
X121632147Y-19308595D01*
X121676501Y-19323947D01*
X121697859Y-19336278D01*
X121697860Y-19336278D01*
X121697865Y-19336281D01*
X121844234Y-19375500D01*
X121844236Y-19375500D01*
X121995764Y-19375500D01*
X121995766Y-19375500D01*
X122142135Y-19336281D01*
X122273365Y-19260515D01*
X122380515Y-19153365D01*
X122456281Y-19022135D01*
X122495500Y-18875766D01*
X122495500Y-18724234D01*
X127124500Y-18724234D01*
X127124500Y-18875766D01*
X127138553Y-18928213D01*
X127163719Y-19022136D01*
X127175090Y-19041830D01*
X127239485Y-19153365D01*
X127346635Y-19260515D01*
X127446309Y-19318062D01*
X127477861Y-19336279D01*
X127477865Y-19336281D01*
X127624234Y-19375500D01*
X127624236Y-19375500D01*
X127775764Y-19375500D01*
X127775766Y-19375500D01*
X127922135Y-19336281D01*
X127932451Y-19330325D01*
X127943499Y-19323947D01*
X128011398Y-19307473D01*
X128077426Y-19330325D01*
X128120617Y-19385245D01*
X128129500Y-19431333D01*
X128129500Y-19948541D01*
X128129500Y-19948543D01*
X128129499Y-19948543D01*
X128167947Y-20141829D01*
X128167950Y-20141839D01*
X128243364Y-20323907D01*
X128243371Y-20323920D01*
X128352860Y-20487781D01*
X128352863Y-20487785D01*
X128492214Y-20627136D01*
X128492218Y-20627139D01*
X128656079Y-20736628D01*
X128656092Y-20736635D01*
X128838160Y-20812049D01*
X128838165Y-20812051D01*
X128838169Y-20812051D01*
X128838170Y-20812052D01*
X129031456Y-20850500D01*
X129031459Y-20850500D01*
X129228543Y-20850500D01*
X129358582Y-20824632D01*
X129421835Y-20812051D01*
X129603914Y-20736632D01*
X129767782Y-20627139D01*
X129907139Y-20487782D01*
X130016632Y-20323914D01*
X130092051Y-20141835D01*
X130126067Y-19970827D01*
X130130500Y-19948543D01*
X130130500Y-18651456D01*
X130092052Y-18458170D01*
X130092051Y-18458169D01*
X130092051Y-18458165D01*
X130087274Y-18446632D01*
X130016635Y-18276092D01*
X130016628Y-18276079D01*
X129907139Y-18112218D01*
X129907136Y-18112214D01*
X129767785Y-17972863D01*
X129767781Y-17972860D01*
X129603920Y-17863371D01*
X129603907Y-17863364D01*
X129421839Y-17787950D01*
X129421829Y-17787947D01*
X129228543Y-17749500D01*
X129228541Y-17749500D01*
X129031459Y-17749500D01*
X129031457Y-17749500D01*
X128838170Y-17787947D01*
X128838160Y-17787950D01*
X128656092Y-17863364D01*
X128656079Y-17863371D01*
X128492218Y-17972860D01*
X128492214Y-17972863D01*
X128352863Y-18112214D01*
X128352860Y-18112218D01*
X128243371Y-18276079D01*
X128243363Y-18276094D01*
X128239456Y-18285528D01*
X128195615Y-18339931D01*
X128129320Y-18361995D01*
X128061621Y-18344715D01*
X128056968Y-18341566D01*
X128053366Y-18339486D01*
X128053365Y-18339485D01*
X127959899Y-18285522D01*
X127922136Y-18263719D01*
X127848950Y-18244109D01*
X127775766Y-18224500D01*
X127624234Y-18224500D01*
X127477863Y-18263719D01*
X127346635Y-18339485D01*
X127346632Y-18339487D01*
X127239487Y-18446632D01*
X127239485Y-18446635D01*
X127163719Y-18577863D01*
X127144000Y-18651459D01*
X127124500Y-18724234D01*
X122495500Y-18724234D01*
X122456281Y-18577865D01*
X122380515Y-18446635D01*
X122273365Y-18339485D01*
X122200063Y-18297164D01*
X122142136Y-18263719D01*
X122068950Y-18244109D01*
X121995766Y-18224500D01*
X121844234Y-18224500D01*
X121697863Y-18263719D01*
X121606428Y-18316510D01*
X121566635Y-18339485D01*
X121566633Y-18339486D01*
X121559597Y-18343549D01*
X121558254Y-18341224D01*
X121505391Y-18361647D01*
X121436949Y-18347592D01*
X121386971Y-18298766D01*
X121380540Y-18285522D01*
X121376632Y-18276087D01*
X121376628Y-18276079D01*
X121267139Y-18112218D01*
X121267136Y-18112214D01*
X121127785Y-17972863D01*
X121127781Y-17972860D01*
X120963920Y-17863371D01*
X120963907Y-17863364D01*
X120781839Y-17787950D01*
X120781829Y-17787947D01*
X120588543Y-17749500D01*
X120588541Y-17749500D01*
X120391459Y-17749500D01*
X120391457Y-17749500D01*
X120198170Y-17787947D01*
X120198160Y-17787950D01*
X120016092Y-17863364D01*
X120016079Y-17863371D01*
X119852218Y-17972860D01*
X119852214Y-17972863D01*
X119712863Y-18112214D01*
X119712860Y-18112218D01*
X119603371Y-18276079D01*
X119603364Y-18276092D01*
X119527950Y-18458160D01*
X119527947Y-18458170D01*
X119489500Y-18651456D01*
X119489500Y-18651459D01*
X119489500Y-19948541D01*
X119489500Y-19948543D01*
X119489499Y-19948543D01*
X113386045Y-19948543D01*
X113352574Y-19780269D01*
X113352571Y-19780258D01*
X113352570Y-19780255D01*
X113352569Y-19780249D01*
X113255582Y-19460524D01*
X113127723Y-19151846D01*
X113068918Y-19041830D01*
X112970230Y-18857196D01*
X112970229Y-18857194D01*
X112970224Y-18857185D01*
X112784601Y-18579382D01*
X112572643Y-18321110D01*
X112572642Y-18321109D01*
X112572638Y-18321104D01*
X112336395Y-18084861D01*
X112078123Y-17872903D01*
X112078122Y-17872902D01*
X112078118Y-17872899D01*
X111800315Y-17687276D01*
X111800310Y-17687273D01*
X111800303Y-17687269D01*
X111505661Y-17529780D01*
X111505656Y-17529778D01*
X111505646Y-17529774D01*
X111392353Y-17482846D01*
X111196977Y-17401918D01*
X110877241Y-17304928D01*
X110877230Y-17304925D01*
X110549565Y-17239750D01*
X110549548Y-17239747D01*
X110298108Y-17214983D01*
X110217056Y-17207000D01*
X109882944Y-17207000D01*
X109807982Y-17214383D01*
X109550451Y-17239747D01*
X109550434Y-17239750D01*
X109222769Y-17304925D01*
X109222758Y-17304928D01*
X108903022Y-17401918D01*
X108594352Y-17529774D01*
X108594345Y-17529777D01*
X108425319Y-17620123D01*
X108356917Y-17634364D01*
X108329453Y-17627745D01*
X108329159Y-17628716D01*
X108323328Y-17626946D01*
X108130043Y-17588500D01*
X108130040Y-17588500D01*
X107932960Y-17588500D01*
X107932957Y-17588500D01*
X107739671Y-17626947D01*
X107739663Y-17626949D01*
X107557589Y-17702367D01*
X107557579Y-17702372D01*
X107393719Y-17811860D01*
X107393715Y-17811863D01*
X107254363Y-17951215D01*
X107254360Y-17951219D01*
X107144872Y-18115079D01*
X107144867Y-18115089D01*
X107069449Y-18297163D01*
X107069447Y-18297171D01*
X107031000Y-18490455D01*
X107031000Y-18687544D01*
X107069446Y-18880828D01*
X107071216Y-18886659D01*
X107068947Y-18887347D01*
X107075293Y-18946387D01*
X107062623Y-18982819D01*
X106972277Y-19151845D01*
X106972274Y-19151852D01*
X106844418Y-19460522D01*
X106747428Y-19780258D01*
X106747425Y-19780269D01*
X106682250Y-20107934D01*
X106682247Y-20107951D01*
X106665331Y-20279711D01*
X106649500Y-20440444D01*
X80521665Y-20440444D01*
X80509397Y-20410827D01*
X80509390Y-20410814D01*
X80421398Y-20279125D01*
X80415747Y-20261078D01*
X80405523Y-20245169D01*
X80401071Y-20214207D01*
X80400520Y-20212447D01*
X80400500Y-20210234D01*
X80400500Y-20169765D01*
X80420185Y-20102726D01*
X80421398Y-20100874D01*
X80509390Y-19969185D01*
X80509390Y-19969184D01*
X80509394Y-19969179D01*
X80517943Y-19948541D01*
X80563021Y-19839711D01*
X80569737Y-19823497D01*
X80600500Y-19668842D01*
X80600500Y-19511158D01*
X80600500Y-19511155D01*
X80600499Y-19511153D01*
X80575454Y-19385245D01*
X80569737Y-19356503D01*
X80561361Y-19336281D01*
X80509397Y-19210827D01*
X80509390Y-19210814D01*
X80421789Y-19079711D01*
X80421786Y-19079707D01*
X80310292Y-18968213D01*
X80310288Y-18968210D01*
X80179185Y-18880609D01*
X80179172Y-18880602D01*
X80033501Y-18820264D01*
X80033489Y-18820261D01*
X79878845Y-18789500D01*
X79878842Y-18789500D01*
X79721158Y-18789500D01*
X79721155Y-18789500D01*
X79566510Y-18820261D01*
X79566498Y-18820264D01*
X79420827Y-18880602D01*
X79420814Y-18880609D01*
X79289711Y-18968210D01*
X79289707Y-18968213D01*
X79267681Y-18990240D01*
X79206358Y-19023725D01*
X79136666Y-19018741D01*
X79092319Y-18990240D01*
X79070292Y-18968213D01*
X79070288Y-18968210D01*
X78939185Y-18880609D01*
X78939172Y-18880602D01*
X78793501Y-18820264D01*
X78793489Y-18820261D01*
X78638845Y-18789500D01*
X78638842Y-18789500D01*
X78481158Y-18789500D01*
X78481155Y-18789500D01*
X78326510Y-18820261D01*
X78326498Y-18820264D01*
X78180827Y-18880602D01*
X78180814Y-18880609D01*
X78049711Y-18968210D01*
X78049707Y-18968213D01*
X77938213Y-19079707D01*
X77938210Y-19079711D01*
X77850609Y-19210814D01*
X77850602Y-19210827D01*
X77790264Y-19356498D01*
X77790261Y-19356508D01*
X77759361Y-19511850D01*
X77726976Y-19573761D01*
X77725425Y-19575339D01*
X76927584Y-20373181D01*
X76866261Y-20406666D01*
X76839903Y-20409500D01*
X69779766Y-20409500D01*
X69761620Y-20404171D01*
X69742712Y-20403834D01*
X69714496Y-20390334D01*
X69712727Y-20389815D01*
X69710875Y-20388602D01*
X69586293Y-20305358D01*
X69541488Y-20251745D01*
X69532781Y-20182420D01*
X69562936Y-20119393D01*
X69567504Y-20114574D01*
X69621786Y-20060292D01*
X69621789Y-20060289D01*
X69709394Y-19929179D01*
X69769737Y-19783497D01*
X69800500Y-19628842D01*
X69800500Y-19471158D01*
X69800500Y-19471155D01*
X69800499Y-19471153D01*
X69777695Y-19356510D01*
X69769737Y-19316503D01*
X69769735Y-19316498D01*
X69709397Y-19170827D01*
X69709390Y-19170814D01*
X69621789Y-19039711D01*
X69621786Y-19039707D01*
X69510292Y-18928213D01*
X69510288Y-18928210D01*
X69379185Y-18840609D01*
X69379172Y-18840602D01*
X69233501Y-18780264D01*
X69233489Y-18780261D01*
X69078845Y-18749500D01*
X69078842Y-18749500D01*
X68921158Y-18749500D01*
X68921155Y-18749500D01*
X68766510Y-18780261D01*
X68766498Y-18780264D01*
X68620827Y-18840602D01*
X68620814Y-18840609D01*
X68489711Y-18928210D01*
X68489707Y-18928213D01*
X68378213Y-19039707D01*
X68378210Y-19039711D01*
X68290609Y-19170814D01*
X68290602Y-19170827D01*
X68230264Y-19316498D01*
X68230261Y-19316508D01*
X68199361Y-19471850D01*
X68166976Y-19533761D01*
X68165425Y-19535339D01*
X65109917Y-22590847D01*
X65048594Y-22624332D01*
X64978902Y-22619348D01*
X64922969Y-22577476D01*
X64898552Y-22512012D01*
X64913404Y-22443739D01*
X64919119Y-22434297D01*
X64970224Y-22357815D01*
X65127723Y-22063154D01*
X65255582Y-21754476D01*
X65352569Y-21434751D01*
X65352571Y-21434741D01*
X65352574Y-21434730D01*
X65391772Y-21237665D01*
X65417751Y-21107059D01*
X65450500Y-20774556D01*
X65450500Y-20440444D01*
X65417751Y-20107941D01*
X65386045Y-19948543D01*
X65352574Y-19780269D01*
X65352571Y-19780258D01*
X65352570Y-19780255D01*
X65352569Y-19780249D01*
X65255582Y-19460524D01*
X65127723Y-19151846D01*
X65068918Y-19041830D01*
X64970230Y-18857196D01*
X64970229Y-18857194D01*
X64970224Y-18857185D01*
X64784601Y-18579382D01*
X64572643Y-18321110D01*
X64572642Y-18321109D01*
X64572638Y-18321104D01*
X64470215Y-18218681D01*
X64436730Y-18157358D01*
X64441714Y-18087666D01*
X64483586Y-18031733D01*
X64549050Y-18007316D01*
X64557896Y-18007000D01*
X80210667Y-18007000D01*
X80277706Y-18026685D01*
X80285147Y-18032101D01*
X80418799Y-18121405D01*
X80418812Y-18121412D01*
X80533320Y-18168842D01*
X80564488Y-18181752D01*
X80719138Y-18212514D01*
X80719141Y-18212515D01*
X80719143Y-18212515D01*
X80876829Y-18212515D01*
X80876830Y-18212514D01*
X81031482Y-18181752D01*
X81177164Y-18121409D01*
X81308274Y-18033804D01*
X81419774Y-17922304D01*
X81507379Y-17791194D01*
X81567722Y-17645512D01*
X81598485Y-17490857D01*
X81598485Y-17333173D01*
X81598485Y-17333170D01*
X81598484Y-17333168D01*
X81567722Y-17178518D01*
X81564402Y-17170502D01*
X81507382Y-17032842D01*
X81507375Y-17032829D01*
X81419774Y-16901726D01*
X81419771Y-16901722D01*
X81308277Y-16790228D01*
X81308273Y-16790225D01*
X81177170Y-16702624D01*
X81177157Y-16702617D01*
X81031486Y-16642279D01*
X81031474Y-16642276D01*
X80876830Y-16611515D01*
X80876827Y-16611515D01*
X80719143Y-16611515D01*
X80719140Y-16611515D01*
X80564495Y-16642276D01*
X80564483Y-16642279D01*
X80418812Y-16702617D01*
X80418799Y-16702624D01*
X80295364Y-16785102D01*
X80228687Y-16805980D01*
X80226473Y-16806000D01*
X79607848Y-16806000D01*
X79540809Y-16786315D01*
X79495054Y-16733511D01*
X79486231Y-16706192D01*
X79459738Y-16573008D01*
X79459737Y-16573007D01*
X79459737Y-16573003D01*
X79459735Y-16572998D01*
X79399397Y-16427327D01*
X79399390Y-16427314D01*
X79311789Y-16296211D01*
X79311786Y-16296207D01*
X79200292Y-16184713D01*
X79200288Y-16184710D01*
X79069185Y-16097109D01*
X79069172Y-16097102D01*
X78923501Y-16036764D01*
X78923489Y-16036761D01*
X78768845Y-16006000D01*
X78768842Y-16006000D01*
X78611158Y-16006000D01*
X78611155Y-16006000D01*
X78456510Y-16036761D01*
X78456498Y-16036764D01*
X78310827Y-16097102D01*
X78310814Y-16097109D01*
X78179125Y-16185102D01*
X78112447Y-16205980D01*
X78110234Y-16206000D01*
X76282597Y-16206000D01*
X76215558Y-16186315D01*
X76169803Y-16133511D01*
X76159859Y-16064353D01*
X76188884Y-16000797D01*
X76194916Y-15994319D01*
X76570692Y-15618543D01*
X119489499Y-15618543D01*
X119527947Y-15811829D01*
X119527950Y-15811839D01*
X119603364Y-15993907D01*
X119603371Y-15993920D01*
X119712860Y-16157781D01*
X119712863Y-16157785D01*
X119852214Y-16297136D01*
X119852218Y-16297139D01*
X120016079Y-16406628D01*
X120016092Y-16406635D01*
X120091301Y-16437787D01*
X120198165Y-16482051D01*
X120198169Y-16482051D01*
X120198170Y-16482052D01*
X120391456Y-16520500D01*
X120391459Y-16520500D01*
X120588543Y-16520500D01*
X120718582Y-16494632D01*
X120781835Y-16482051D01*
X120963914Y-16406632D01*
X121127782Y-16297139D01*
X121267139Y-16157782D01*
X121376632Y-15993914D01*
X121452051Y-15811835D01*
X121484021Y-15651113D01*
X121490500Y-15618543D01*
X128129499Y-15618543D01*
X128167947Y-15811829D01*
X128167950Y-15811839D01*
X128243364Y-15993907D01*
X128243371Y-15993920D01*
X128352860Y-16157781D01*
X128352863Y-16157785D01*
X128492214Y-16297136D01*
X128492218Y-16297139D01*
X128656079Y-16406628D01*
X128656092Y-16406635D01*
X128731301Y-16437787D01*
X128838165Y-16482051D01*
X128838169Y-16482051D01*
X128838170Y-16482052D01*
X129031456Y-16520500D01*
X129031459Y-16520500D01*
X129228543Y-16520500D01*
X129358582Y-16494632D01*
X129421835Y-16482051D01*
X129603914Y-16406632D01*
X129767782Y-16297139D01*
X129907139Y-16157782D01*
X130016632Y-15993914D01*
X130092051Y-15811835D01*
X130124021Y-15651113D01*
X130130500Y-15618543D01*
X130130500Y-14621456D01*
X130092052Y-14428170D01*
X130092051Y-14428169D01*
X130092051Y-14428165D01*
X130067709Y-14369397D01*
X130016635Y-14246092D01*
X130016628Y-14246079D01*
X129907139Y-14082218D01*
X129907136Y-14082214D01*
X129767785Y-13942863D01*
X129767781Y-13942860D01*
X129603920Y-13833371D01*
X129603907Y-13833364D01*
X129421839Y-13757950D01*
X129421829Y-13757947D01*
X129228543Y-13719500D01*
X129228541Y-13719500D01*
X129031459Y-13719500D01*
X129031457Y-13719500D01*
X128838170Y-13757947D01*
X128838160Y-13757950D01*
X128656092Y-13833364D01*
X128656079Y-13833371D01*
X128492218Y-13942860D01*
X128492214Y-13942863D01*
X128352863Y-14082214D01*
X128352860Y-14082218D01*
X128243371Y-14246079D01*
X128243364Y-14246092D01*
X128167950Y-14428160D01*
X128167947Y-14428170D01*
X128129500Y-14621456D01*
X128129500Y-14621459D01*
X128129500Y-15618541D01*
X128129500Y-15618543D01*
X128129499Y-15618543D01*
X121490500Y-15618543D01*
X121490500Y-14621456D01*
X121452052Y-14428170D01*
X121452051Y-14428169D01*
X121452051Y-14428165D01*
X121427709Y-14369397D01*
X121376635Y-14246092D01*
X121376628Y-14246079D01*
X121267139Y-14082218D01*
X121267136Y-14082214D01*
X121127785Y-13942863D01*
X121127781Y-13942860D01*
X120963920Y-13833371D01*
X120963907Y-13833364D01*
X120781839Y-13757950D01*
X120781829Y-13757947D01*
X120588543Y-13719500D01*
X120588541Y-13719500D01*
X120391459Y-13719500D01*
X120391457Y-13719500D01*
X120198170Y-13757947D01*
X120198160Y-13757950D01*
X120016092Y-13833364D01*
X120016079Y-13833371D01*
X119852218Y-13942860D01*
X119852214Y-13942863D01*
X119712863Y-14082214D01*
X119712860Y-14082218D01*
X119603371Y-14246079D01*
X119603364Y-14246092D01*
X119527950Y-14428160D01*
X119527947Y-14428170D01*
X119489500Y-14621456D01*
X119489500Y-14621459D01*
X119489500Y-15618541D01*
X119489500Y-15618543D01*
X119489499Y-15618543D01*
X76570692Y-15618543D01*
X76926422Y-15262813D01*
X77694662Y-14494572D01*
X77755983Y-14461089D01*
X77758150Y-14460638D01*
X77825690Y-14447203D01*
X77913497Y-14429737D01*
X78059179Y-14369394D01*
X78190289Y-14281789D01*
X78301789Y-14170289D01*
X78389394Y-14039179D01*
X78449737Y-13893497D01*
X78480500Y-13738842D01*
X78480500Y-13581158D01*
X78480500Y-13581155D01*
X78480499Y-13581153D01*
X78460576Y-13480996D01*
X78449737Y-13426503D01*
X78449735Y-13426498D01*
X78389397Y-13280827D01*
X78389390Y-13280814D01*
X78301789Y-13149711D01*
X78301786Y-13149707D01*
X78190292Y-13038213D01*
X78190288Y-13038210D01*
X78059185Y-12950609D01*
X78059172Y-12950602D01*
X77913501Y-12890264D01*
X77913489Y-12890261D01*
X77758845Y-12859500D01*
X77758842Y-12859500D01*
X77601158Y-12859500D01*
X77601155Y-12859500D01*
X77446510Y-12890261D01*
X77446498Y-12890264D01*
X77300827Y-12950602D01*
X77300814Y-12950609D01*
X77169711Y-13038210D01*
X77169707Y-13038213D01*
X77058213Y-13149707D01*
X77058210Y-13149711D01*
X76970609Y-13280814D01*
X76970602Y-13280827D01*
X76910264Y-13426498D01*
X76910261Y-13426508D01*
X76892241Y-13517100D01*
X76859856Y-13579011D01*
X76799140Y-13613585D01*
X76729370Y-13609844D01*
X76701733Y-13596010D01*
X76619920Y-13541344D01*
X76619907Y-13541337D01*
X76474236Y-13480999D01*
X76474224Y-13480996D01*
X76319580Y-13450235D01*
X76319577Y-13450235D01*
X76161893Y-13450235D01*
X76161890Y-13450235D01*
X76007245Y-13480996D01*
X76007233Y-13480999D01*
X75861562Y-13541337D01*
X75861549Y-13541344D01*
X75730446Y-13628945D01*
X75730442Y-13628948D01*
X75618948Y-13740442D01*
X75618945Y-13740446D01*
X75531344Y-13871549D01*
X75531337Y-13871562D01*
X75470999Y-14017233D01*
X75470996Y-14017243D01*
X75452877Y-14108332D01*
X75420491Y-14170243D01*
X75418941Y-14171821D01*
X74306584Y-15284181D01*
X74245261Y-15317666D01*
X74218903Y-15320500D01*
X74191155Y-15320500D01*
X74036510Y-15351261D01*
X74036498Y-15351264D01*
X73890827Y-15411602D01*
X73890814Y-15411609D01*
X73759711Y-15499210D01*
X73759707Y-15499213D01*
X73648213Y-15610707D01*
X73648210Y-15610711D01*
X73560609Y-15741814D01*
X73560602Y-15741827D01*
X73500264Y-15887498D01*
X73500261Y-15887510D01*
X73469500Y-16042153D01*
X73469500Y-16082000D01*
X73449815Y-16149039D01*
X73397011Y-16194794D01*
X73345500Y-16206000D01*
X53214963Y-16206000D01*
X53056848Y-16206000D01*
X52904121Y-16246923D01*
X52881091Y-16260219D01*
X52874919Y-16263783D01*
X52874918Y-16263782D01*
X52767193Y-16325977D01*
X52767188Y-16325981D01*
X52655386Y-16437783D01*
X52655386Y-16437784D01*
X52655384Y-16437786D01*
X52586781Y-16506389D01*
X52523739Y-16569431D01*
X52462416Y-16602915D01*
X52460250Y-16603366D01*
X52304910Y-16634265D01*
X52304900Y-16634268D01*
X52159229Y-16694606D01*
X52159216Y-16694613D01*
X52028113Y-16782214D01*
X52028109Y-16782217D01*
X51916615Y-16893711D01*
X51916612Y-16893715D01*
X51829011Y-17024818D01*
X51829004Y-17024831D01*
X51768666Y-17170502D01*
X51768663Y-17170514D01*
X51737902Y-17325157D01*
X51737902Y-17482850D01*
X51768663Y-17637493D01*
X51768666Y-17637505D01*
X51829004Y-17783176D01*
X51829011Y-17783189D01*
X51916612Y-17914292D01*
X51916615Y-17914296D01*
X52028110Y-18025791D01*
X52028113Y-18025793D01*
X52094391Y-18070078D01*
X52139195Y-18123689D01*
X52147366Y-18162933D01*
X52148903Y-18162782D01*
X52149500Y-18168846D01*
X52180261Y-18323489D01*
X52180264Y-18323501D01*
X52240602Y-18469172D01*
X52240609Y-18469185D01*
X52328210Y-18600288D01*
X52328213Y-18600292D01*
X52439707Y-18711786D01*
X52439711Y-18711789D01*
X52570814Y-18799390D01*
X52570827Y-18799397D01*
X52691791Y-18849501D01*
X52716503Y-18859737D01*
X52851848Y-18886659D01*
X52871153Y-18890499D01*
X52871156Y-18890500D01*
X52871158Y-18890500D01*
X53028844Y-18890500D01*
X53028845Y-18890499D01*
X53183497Y-18859737D01*
X53329179Y-18799394D01*
X53460289Y-18711789D01*
X53571789Y-18600289D01*
X53659394Y-18469179D01*
X53663542Y-18459166D01*
X53703935Y-18361647D01*
X53719737Y-18323497D01*
X53747932Y-18181752D01*
X53750638Y-18168150D01*
X53759402Y-18151394D01*
X53763423Y-18132913D01*
X53782168Y-18107871D01*
X53783023Y-18106239D01*
X53784467Y-18104767D01*
X53845918Y-18043316D01*
X53907240Y-18009834D01*
X53933597Y-18007000D01*
X59542104Y-18007000D01*
X59609143Y-18026685D01*
X59654898Y-18079489D01*
X59664842Y-18148647D01*
X59635817Y-18212203D01*
X59629785Y-18218681D01*
X59527361Y-18321104D01*
X59315403Y-18579376D01*
X59315393Y-18579390D01*
X59129780Y-18857178D01*
X59129769Y-18857196D01*
X58972280Y-19151838D01*
X58972278Y-19151843D01*
X58844418Y-19460522D01*
X58747428Y-19780258D01*
X58747425Y-19780269D01*
X58682250Y-20107934D01*
X58682247Y-20107951D01*
X58665331Y-20279711D01*
X58649500Y-20440444D01*
X58649500Y-20774556D01*
X58656006Y-20840609D01*
X58682247Y-21107048D01*
X58682250Y-21107065D01*
X58747425Y-21434730D01*
X58747428Y-21434741D01*
X58844418Y-21754477D01*
X58972278Y-22063156D01*
X58972280Y-22063161D01*
X59129769Y-22357803D01*
X59129780Y-22357821D01*
X59315393Y-22635609D01*
X59315403Y-22635623D01*
X59527361Y-22893895D01*
X59629785Y-22996319D01*
X59663270Y-23057642D01*
X59658286Y-23127334D01*
X59616414Y-23183267D01*
X59550950Y-23207684D01*
X59542104Y-23208000D01*
X50218540Y-23208000D01*
X50151501Y-23188315D01*
X50130859Y-23171681D01*
X48176533Y-21217355D01*
X48176531Y-21217352D01*
X48057660Y-21098481D01*
X48057659Y-21098480D01*
X47955867Y-21039711D01*
X47955866Y-21039710D01*
X47920726Y-21019422D01*
X47864824Y-21004443D01*
X47768000Y-20978499D01*
X47609886Y-20978499D01*
X47602290Y-20978499D01*
X47602274Y-20978500D01*
X40894850Y-20978500D01*
X40827811Y-20958815D01*
X40825959Y-20957602D01*
X40694269Y-20869609D01*
X40694256Y-20869602D01*
X40548585Y-20809264D01*
X40548573Y-20809261D01*
X40393929Y-20778500D01*
X40393926Y-20778500D01*
X40236242Y-20778500D01*
X40236239Y-20778500D01*
X40081594Y-20809261D01*
X40081582Y-20809264D01*
X39935911Y-20869602D01*
X39935898Y-20869609D01*
X39804795Y-20957210D01*
X39804791Y-20957213D01*
X39693297Y-21068707D01*
X39693294Y-21068711D01*
X39605693Y-21199814D01*
X39605686Y-21199827D01*
X39545348Y-21345498D01*
X39545345Y-21345510D01*
X39532579Y-21409691D01*
X39500195Y-21471602D01*
X39439479Y-21506176D01*
X39410962Y-21509500D01*
X38872229Y-21509500D01*
X38805190Y-21489815D01*
X38784548Y-21473181D01*
X38546072Y-21234705D01*
X38519191Y-21194473D01*
X38509397Y-21170828D01*
X38509396Y-21170826D01*
X38509394Y-21170821D01*
X38476482Y-21121565D01*
X38421789Y-21039710D01*
X38310292Y-20928213D01*
X38310288Y-20928210D01*
X38179185Y-20840609D01*
X38179172Y-20840602D01*
X38033501Y-20780264D01*
X38033489Y-20780261D01*
X37878845Y-20749500D01*
X37878842Y-20749500D01*
X37721158Y-20749500D01*
X37721155Y-20749500D01*
X37566510Y-20780261D01*
X37566498Y-20780264D01*
X37420827Y-20840602D01*
X37420814Y-20840609D01*
X37289711Y-20928210D01*
X37289707Y-20928213D01*
X37178213Y-21039707D01*
X37178210Y-21039711D01*
X37090609Y-21170814D01*
X37090602Y-21170827D01*
X37030264Y-21316498D01*
X37030261Y-21316510D01*
X36999500Y-21471153D01*
X36305944Y-21471153D01*
X36281915Y-21461200D01*
X36281903Y-21461197D01*
X36127259Y-21430436D01*
X36127256Y-21430436D01*
X35969572Y-21430436D01*
X35969569Y-21430436D01*
X35814924Y-21461197D01*
X35814912Y-21461200D01*
X35669241Y-21521538D01*
X35669229Y-21521545D01*
X35583839Y-21578602D01*
X35517162Y-21599480D01*
X35514948Y-21599500D01*
X33279062Y-21599500D01*
X33279058Y-21599499D01*
X33120943Y-21599499D01*
X33115014Y-21601087D01*
X33100862Y-21601218D01*
X33094692Y-21599467D01*
X33085000Y-21599150D01*
X33084907Y-21600097D01*
X33078845Y-21599500D01*
X33078842Y-21599500D01*
X32921158Y-21599500D01*
X32921155Y-21599500D01*
X32766510Y-21630261D01*
X32766498Y-21630264D01*
X32620827Y-21690602D01*
X32620814Y-21690609D01*
X32489711Y-21778210D01*
X32489707Y-21778213D01*
X32378213Y-21889707D01*
X32378210Y-21889711D01*
X32290609Y-22020814D01*
X32290602Y-22020827D01*
X32230264Y-22166498D01*
X32230261Y-22166510D01*
X32199500Y-22321153D01*
X32199500Y-22421613D01*
X32179815Y-22488652D01*
X32127011Y-22534407D01*
X32057853Y-22544351D01*
X31994297Y-22515326D01*
X31987819Y-22509294D01*
X30517982Y-21039457D01*
X30484497Y-20978134D01*
X30489481Y-20908442D01*
X30517991Y-20864086D01*
X30521789Y-20860289D01*
X30609394Y-20729179D01*
X30616859Y-20711158D01*
X30669735Y-20583501D01*
X30669737Y-20583497D01*
X30700500Y-20428842D01*
X30700500Y-20271158D01*
X30700500Y-20271155D01*
X30700499Y-20271153D01*
X30695330Y-20245169D01*
X30669737Y-20116503D01*
X30666188Y-20107934D01*
X30609397Y-19970827D01*
X30609390Y-19970814D01*
X30521789Y-19839711D01*
X30521786Y-19839707D01*
X30410292Y-19728213D01*
X30410288Y-19728210D01*
X30279185Y-19640609D01*
X30279172Y-19640602D01*
X30133501Y-19580264D01*
X30133489Y-19580261D01*
X29978845Y-19549500D01*
X29978842Y-19549500D01*
X29821158Y-19549500D01*
X29821155Y-19549500D01*
X29666510Y-19580261D01*
X29666498Y-19580264D01*
X29520827Y-19640602D01*
X29520814Y-19640609D01*
X29389711Y-19728210D01*
X29389707Y-19728213D01*
X29278213Y-19839707D01*
X29278210Y-19839711D01*
X29190609Y-19970814D01*
X29190602Y-19970827D01*
X29130264Y-20116498D01*
X29130261Y-20116510D01*
X29099500Y-20271153D01*
X25021736Y-20271153D01*
X24986002Y-20137793D01*
X24899591Y-19929179D01*
X24890669Y-19907638D01*
X24890662Y-19907623D01*
X24766099Y-19691873D01*
X24614439Y-19494225D01*
X24614433Y-19494218D01*
X24438281Y-19318066D01*
X24438274Y-19318060D01*
X24240626Y-19166400D01*
X24024876Y-19041837D01*
X24024861Y-19041830D01*
X23794707Y-18946498D01*
X23554061Y-18882017D01*
X23307075Y-18849501D01*
X23307070Y-18849500D01*
X23307065Y-18849500D01*
X23057935Y-18849500D01*
X23057929Y-18849500D01*
X23057924Y-18849501D01*
X22810938Y-18882017D01*
X22570292Y-18946498D01*
X22340138Y-19041830D01*
X22340123Y-19041837D01*
X22124373Y-19166400D01*
X21926725Y-19318060D01*
X21926718Y-19318066D01*
X21750566Y-19494218D01*
X21750560Y-19494225D01*
X21598900Y-19691873D01*
X21474337Y-19907623D01*
X21474330Y-19907638D01*
X21378998Y-20137792D01*
X21314517Y-20378438D01*
X21282001Y-20625424D01*
X21282000Y-20625441D01*
X19650500Y-20625441D01*
X19650500Y-14549984D01*
X21282000Y-14549984D01*
X21282000Y-16950015D01*
X21292500Y-17052795D01*
X21292501Y-17052796D01*
X21347686Y-17219335D01*
X21347687Y-17219337D01*
X21439786Y-17368651D01*
X21439789Y-17368655D01*
X21563844Y-17492710D01*
X21563848Y-17492713D01*
X21713162Y-17584812D01*
X21713164Y-17584813D01*
X21713166Y-17584814D01*
X21879703Y-17639999D01*
X21982492Y-17650500D01*
X21982497Y-17650500D01*
X24382503Y-17650500D01*
X24382508Y-17650500D01*
X24485297Y-17639999D01*
X24651834Y-17584814D01*
X24801155Y-17492711D01*
X24925211Y-17368655D01*
X25017314Y-17219334D01*
X25072499Y-17052797D01*
X25083000Y-16950008D01*
X25083000Y-15805756D01*
X34164897Y-15805756D01*
X34164897Y-15963449D01*
X34195658Y-16118092D01*
X34195661Y-16118104D01*
X34255999Y-16263775D01*
X34256006Y-16263788D01*
X34343607Y-16394891D01*
X34343610Y-16394895D01*
X34455104Y-16506389D01*
X34455108Y-16506392D01*
X34586211Y-16593993D01*
X34586224Y-16594000D01*
X34702782Y-16642279D01*
X34731900Y-16654340D01*
X34886550Y-16685102D01*
X34886553Y-16685103D01*
X34886555Y-16685103D01*
X35044241Y-16685103D01*
X35044242Y-16685102D01*
X35198894Y-16654340D01*
X35344576Y-16593997D01*
X35475686Y-16506392D01*
X35587186Y-16394892D01*
X35674791Y-16263782D01*
X35735134Y-16118100D01*
X35765897Y-15963445D01*
X35765897Y-15805761D01*
X35765897Y-15805758D01*
X35765896Y-15805756D01*
X35735134Y-15651106D01*
X35718402Y-15610711D01*
X35674794Y-15505430D01*
X35674787Y-15505417D01*
X35587186Y-15374314D01*
X35587183Y-15374310D01*
X35475689Y-15262816D01*
X35475685Y-15262813D01*
X35344582Y-15175212D01*
X35344569Y-15175205D01*
X35198898Y-15114867D01*
X35198886Y-15114864D01*
X35044242Y-15084103D01*
X35044239Y-15084103D01*
X34886555Y-15084103D01*
X34886552Y-15084103D01*
X34731907Y-15114864D01*
X34731895Y-15114867D01*
X34586224Y-15175205D01*
X34586211Y-15175212D01*
X34455108Y-15262813D01*
X34455104Y-15262816D01*
X34343610Y-15374310D01*
X34343607Y-15374314D01*
X34256006Y-15505417D01*
X34255999Y-15505430D01*
X34195661Y-15651101D01*
X34195658Y-15651113D01*
X34164897Y-15805756D01*
X25083000Y-15805756D01*
X25083000Y-14549992D01*
X25072499Y-14447203D01*
X25017314Y-14280666D01*
X24995988Y-14246092D01*
X24925213Y-14131348D01*
X24925210Y-14131344D01*
X24801155Y-14007289D01*
X24801151Y-14007286D01*
X24651837Y-13915187D01*
X24651835Y-13915186D01*
X24568565Y-13887593D01*
X24485297Y-13860001D01*
X24485295Y-13860000D01*
X24382515Y-13849500D01*
X24382508Y-13849500D01*
X21982492Y-13849500D01*
X21982484Y-13849500D01*
X21879704Y-13860000D01*
X21879703Y-13860001D01*
X21713164Y-13915186D01*
X21713162Y-13915187D01*
X21563848Y-14007286D01*
X21563844Y-14007289D01*
X21439789Y-14131344D01*
X21439786Y-14131348D01*
X21347687Y-14280662D01*
X21347686Y-14280664D01*
X21292501Y-14447203D01*
X21292500Y-14447204D01*
X21282000Y-14549984D01*
X19650500Y-14549984D01*
X19650500Y-12624500D01*
X19670185Y-12557461D01*
X19722989Y-12511706D01*
X19774500Y-12500500D01*
X130475500Y-12500500D01*
X130542539Y-12520185D01*
G37*
%TD.AperFunction*%
M02*
