%TF.GenerationSoftware,KiCad,Pcbnew,9.0.3*%
%TF.CreationDate,2025-11-10T23:22:15+01:00*%
%TF.ProjectId,AESS-PCB,41455353-2d50-4434-922e-6b696361645f,rev?*%
%TF.SameCoordinates,Original*%
%TF.FileFunction,Soldermask,Top*%
%TF.FilePolarity,Negative*%
%FSLAX46Y46*%
G04 Gerber Fmt 4.6, Leading zero omitted, Abs format (unit mm)*
G04 Created by KiCad (PCBNEW 9.0.3) date 2025-11-10 23:22:15*
%MOMM*%
%LPD*%
G01*
G04 APERTURE LIST*
G04 Aperture macros list*
%AMRoundRect*
0 Rectangle with rounded corners*
0 $1 Rounding radius*
0 $2 $3 $4 $5 $6 $7 $8 $9 X,Y pos of 4 corners*
0 Add a 4 corners polygon primitive as box body*
4,1,4,$2,$3,$4,$5,$6,$7,$8,$9,$2,$3,0*
0 Add four circle primitives for the rounded corners*
1,1,$1+$1,$2,$3*
1,1,$1+$1,$4,$5*
1,1,$1+$1,$6,$7*
1,1,$1+$1,$8,$9*
0 Add four rect primitives between the rounded corners*
20,1,$1+$1,$2,$3,$4,$5,0*
20,1,$1+$1,$4,$5,$6,$7,0*
20,1,$1+$1,$6,$7,$8,$9,0*
20,1,$1+$1,$8,$9,$2,$3,0*%
G04 Aperture macros list end*
%ADD10RoundRect,0.140000X-0.170000X0.140000X-0.170000X-0.140000X0.170000X-0.140000X0.170000X0.140000X0*%
%ADD11RoundRect,0.135000X0.135000X0.185000X-0.135000X0.185000X-0.135000X-0.185000X0.135000X-0.185000X0*%
%ADD12RoundRect,0.135000X-0.135000X-0.185000X0.135000X-0.185000X0.135000X0.185000X-0.135000X0.185000X0*%
%ADD13RoundRect,0.135000X0.185000X-0.135000X0.185000X0.135000X-0.185000X0.135000X-0.185000X-0.135000X0*%
%ADD14RoundRect,0.140000X0.170000X-0.140000X0.170000X0.140000X-0.170000X0.140000X-0.170000X-0.140000X0*%
%ADD15RoundRect,0.140000X0.140000X0.170000X-0.140000X0.170000X-0.140000X-0.170000X0.140000X-0.170000X0*%
%ADD16O,2.200001X0.599999*%
%ADD17O,1.000000X1.800000*%
%ADD18O,1.000000X2.100000*%
%ADD19RoundRect,0.150000X0.150000X0.425000X-0.150000X0.425000X-0.150000X-0.425000X0.150000X-0.425000X0*%
%ADD20RoundRect,0.075000X0.075000X0.500000X-0.075000X0.500000X-0.075000X-0.500000X0.075000X-0.500000X0*%
%ADD21C,0.650000*%
%ADD22RoundRect,0.250001X-1.149999X1.149999X-1.149999X-1.149999X1.149999X-1.149999X1.149999X1.149999X0*%
%ADD23C,2.800000*%
%ADD24R,0.500000X0.350000*%
%ADD25R,0.800000X1.500000*%
%ADD26R,1.450000X2.000000*%
%ADD27RoundRect,0.150000X-0.150000X0.512500X-0.150000X-0.512500X0.150000X-0.512500X0.150000X0.512500X0*%
%ADD28RoundRect,0.150000X0.150000X-0.875000X0.150000X0.875000X-0.150000X0.875000X-0.150000X-0.875000X0*%
%ADD29RoundRect,0.102000X-0.100000X-0.350000X0.100000X-0.350000X0.100000X0.350000X-0.100000X0.350000X0*%
%ADD30C,6.004000*%
G04 APERTURE END LIST*
D10*
%TO.C,C2*%
X39300000Y-19570000D03*
X39300000Y-20530000D03*
%TD*%
D11*
%TO.C,R4*%
X57260000Y-40450000D03*
X56240000Y-40450000D03*
%TD*%
D12*
%TO.C,R3*%
X54240000Y-40450000D03*
X55260000Y-40450000D03*
%TD*%
D11*
%TO.C,R2*%
X122560000Y-21600000D03*
X121540000Y-21600000D03*
%TD*%
D13*
%TO.C,R1*%
X57500000Y-34060000D03*
X57500000Y-33040000D03*
%TD*%
D14*
%TO.C,C3*%
X28050000Y-28980000D03*
X28050000Y-28020000D03*
%TD*%
D15*
%TO.C,C1*%
X51630000Y-30550000D03*
X50670000Y-30550000D03*
%TD*%
D16*
%TO.C,U2*%
X37200000Y-16045000D03*
X37200000Y-17315000D03*
X37200000Y-18585000D03*
X37200000Y-19855000D03*
X32400000Y-19855000D03*
X32400000Y-18585000D03*
X32400000Y-17315000D03*
X32400000Y-16045000D03*
%TD*%
D17*
%TO.C,J2*%
X120490000Y-15120000D03*
D18*
X120490000Y-19300000D03*
D17*
X129130000Y-15120000D03*
D18*
X129130000Y-19300000D03*
D19*
X128010000Y-19875000D03*
X127210000Y-19875000D03*
D20*
X126560000Y-19875000D03*
X125560000Y-19875000D03*
X124060000Y-19875000D03*
X123060000Y-19875000D03*
D19*
X122410000Y-19875000D03*
X121610000Y-19875000D03*
X121610000Y-19875000D03*
X122410000Y-19875000D03*
D20*
X123560000Y-19875000D03*
X124560000Y-19875000D03*
X125060000Y-19875000D03*
X126060000Y-19875000D03*
D19*
X127210000Y-19875000D03*
X128010000Y-19875000D03*
D21*
X121920000Y-18800000D03*
X127700000Y-18800000D03*
%TD*%
D22*
%TO.C,J3*%
X23182500Y-15750000D03*
D23*
X23182500Y-20750000D03*
%TD*%
D24*
%TO.C,U6*%
X53827500Y-36007500D03*
X53827500Y-36657500D03*
X53827500Y-37307500D03*
X53827500Y-37957500D03*
X55877500Y-37957500D03*
X55877500Y-37307500D03*
X55877500Y-36657500D03*
X55877500Y-36007500D03*
%TD*%
D25*
%TO.C,J1*%
X45050000Y-19802500D03*
X46150000Y-19802500D03*
X47250000Y-19802500D03*
X48350000Y-19802500D03*
X49450000Y-19802500D03*
X50550000Y-19802500D03*
X51650000Y-19802500D03*
X52750000Y-19802500D03*
D26*
X41375000Y-17202500D03*
X41375000Y-25502500D03*
X55125000Y-17202500D03*
X55125000Y-25502500D03*
%TD*%
D27*
%TO.C,U5*%
X55820000Y-33217500D03*
X53920000Y-33217500D03*
X53920000Y-30942500D03*
X54870000Y-30942500D03*
X55820000Y-30942500D03*
%TD*%
D28*
%TO.C,U3*%
X29940000Y-33050000D03*
X31210000Y-33050000D03*
X32480000Y-33050000D03*
X33750000Y-33050000D03*
X35020000Y-33050000D03*
X36290000Y-33050000D03*
X37560000Y-33050000D03*
X37560000Y-23750000D03*
X36290000Y-23750000D03*
X35020000Y-23750000D03*
X33750000Y-23750000D03*
X32480000Y-23750000D03*
X31210000Y-23750000D03*
X29940000Y-23750000D03*
%TD*%
D29*
%TO.C,U1*%
X93350000Y-18567500D03*
X93350000Y-21647500D03*
X92950000Y-18567500D03*
X92950000Y-21647500D03*
X92550000Y-18567500D03*
X92550000Y-21647500D03*
X92150000Y-18567500D03*
X92150000Y-21647500D03*
X91750000Y-18567500D03*
X91750000Y-21647500D03*
X91350000Y-18567500D03*
X91350000Y-21647500D03*
X90950000Y-18567500D03*
X90950000Y-21647500D03*
X90550000Y-18567500D03*
X90550000Y-21647500D03*
X90150000Y-18567500D03*
X90150000Y-21647500D03*
X89750000Y-18567500D03*
X89750000Y-21647500D03*
X89350000Y-18567500D03*
X89350000Y-21647500D03*
X88950000Y-18567500D03*
X88950000Y-21647500D03*
X88550000Y-18567500D03*
X88550000Y-21647500D03*
X88150000Y-18567500D03*
X88150000Y-21647500D03*
X87750000Y-18567500D03*
X87750000Y-21647500D03*
X87350000Y-18567500D03*
X87350000Y-21647500D03*
X86950000Y-18567500D03*
X86950000Y-21647500D03*
X86550000Y-18567500D03*
X86550000Y-21647500D03*
X86150000Y-18567500D03*
X86150000Y-21647500D03*
X85750000Y-18567500D03*
X85750000Y-21647500D03*
X85350000Y-18567500D03*
X85350000Y-21647500D03*
X84950000Y-18567500D03*
X84950000Y-21647500D03*
X84550000Y-18567500D03*
X84550000Y-21647500D03*
X84150000Y-18567500D03*
X84150000Y-21647500D03*
X83750000Y-18567500D03*
X83750000Y-21647500D03*
X83350000Y-18567500D03*
X83350000Y-21647500D03*
X82950000Y-18567500D03*
X82950000Y-21647500D03*
X82550000Y-18567500D03*
X82550000Y-21647500D03*
X82150000Y-18567500D03*
X82150000Y-21647500D03*
X81750000Y-18567500D03*
X81750000Y-21647500D03*
X81350000Y-18567500D03*
X81350000Y-21647500D03*
X80950000Y-18567500D03*
X80950000Y-21647500D03*
X80550000Y-18567500D03*
X80550000Y-21647500D03*
X80150000Y-18567500D03*
X80150000Y-21647500D03*
X79750000Y-18567500D03*
X79750000Y-21647500D03*
X79350000Y-18567500D03*
X79350000Y-21647500D03*
X78950000Y-18567500D03*
X78950000Y-21647500D03*
X78550000Y-18567500D03*
X78550000Y-21647500D03*
X78150000Y-18567500D03*
X78150000Y-21647500D03*
X77750000Y-18567500D03*
X77750000Y-21647500D03*
X77350000Y-18567500D03*
X77350000Y-21647500D03*
X76950000Y-18567500D03*
X76950000Y-21647500D03*
X76550000Y-18567500D03*
X76550000Y-21647500D03*
X76150000Y-18567500D03*
X76150000Y-21647500D03*
X75750000Y-18567500D03*
X75750000Y-21647500D03*
X75350000Y-18567500D03*
X75350000Y-21647500D03*
X74950000Y-18567500D03*
X74950000Y-21647500D03*
X74550000Y-18567500D03*
X74550000Y-21647500D03*
X74150000Y-18567500D03*
X74150000Y-21647500D03*
X73750000Y-18567500D03*
X73750000Y-21647500D03*
X93350000Y-52567500D03*
X93350000Y-55647500D03*
X92950000Y-52567500D03*
X92950000Y-55647500D03*
X92550000Y-52567500D03*
X92550000Y-55647500D03*
X92150000Y-52567500D03*
X92150000Y-55647500D03*
X91750000Y-52567500D03*
X91750000Y-55647500D03*
X91350000Y-52567500D03*
X91350000Y-55647500D03*
X90950000Y-52567500D03*
X90950000Y-55647500D03*
X90550000Y-52567500D03*
X90550000Y-55647500D03*
X90150000Y-52567500D03*
X90150000Y-55647500D03*
X89750000Y-52567500D03*
X89750000Y-55647500D03*
X89350000Y-52567500D03*
X89350000Y-55647500D03*
X88950000Y-52567500D03*
X88950000Y-55647500D03*
X88550000Y-52567500D03*
X88550000Y-55647500D03*
X88150000Y-52567500D03*
X88150000Y-55647500D03*
X87750000Y-52567500D03*
X87750000Y-55647500D03*
X87350000Y-52567500D03*
X87350000Y-55647500D03*
X86950000Y-52567500D03*
X86950000Y-55647500D03*
X86550000Y-52567500D03*
X86550000Y-55647500D03*
X86150000Y-52567500D03*
X86150000Y-55647500D03*
X85750000Y-52567500D03*
X85750000Y-55647500D03*
X85350000Y-52567500D03*
X85350000Y-55647500D03*
X84950000Y-52567500D03*
X84950000Y-55647500D03*
X84550000Y-52567500D03*
X84550000Y-55647500D03*
X84150000Y-52567500D03*
X84150000Y-55647500D03*
X83750000Y-52567500D03*
X83750000Y-55647500D03*
X83350000Y-52567500D03*
X83350000Y-55647500D03*
X82950000Y-52567500D03*
X82950000Y-55647500D03*
X82550000Y-52567500D03*
X82550000Y-55647500D03*
X82150000Y-52567500D03*
X82150000Y-55647500D03*
X81750000Y-52567500D03*
X81750000Y-55647500D03*
X81350000Y-52567500D03*
X81350000Y-55647500D03*
X80950000Y-52567500D03*
X80950000Y-55647500D03*
X80550000Y-52567500D03*
X80550000Y-55647500D03*
X80150000Y-52567500D03*
X80150000Y-55647500D03*
X79750000Y-52567500D03*
X79750000Y-55647500D03*
X79350000Y-52567500D03*
X79350000Y-55647500D03*
X78950000Y-52567500D03*
X78950000Y-55647500D03*
X78550000Y-52567500D03*
X78550000Y-55647500D03*
X78150000Y-52567500D03*
X78150000Y-55647500D03*
X77750000Y-52567500D03*
X77750000Y-55647500D03*
X77350000Y-52567500D03*
X77350000Y-55647500D03*
X76950000Y-52567500D03*
X76950000Y-55647500D03*
X76550000Y-52567500D03*
X76550000Y-55647500D03*
X76150000Y-52567500D03*
X76150000Y-55647500D03*
X75750000Y-52567500D03*
X75750000Y-55647500D03*
X75350000Y-52567500D03*
X75350000Y-55647500D03*
X74950000Y-52567500D03*
X74950000Y-55647500D03*
X74550000Y-52567500D03*
X74550000Y-55647500D03*
X74150000Y-52567500D03*
X74150000Y-55647500D03*
X73750000Y-52567500D03*
X73750000Y-55647500D03*
D30*
X62050000Y-20607500D03*
X62050000Y-53607500D03*
X110050000Y-20607500D03*
X110050000Y-53607500D03*
%TD*%
M02*
